%TF.GenerationSoftware,KiCad,Pcbnew,(5.1.10)-1*%
%TF.CreationDate,2021-08-19T11:13:35+01:00*%
%TF.ProjectId,PistormTester,50697374-6f72-46d5-9465-737465722e6b,rev?*%
%TF.SameCoordinates,Original*%
%TF.FileFunction,Soldermask,Bot*%
%TF.FilePolarity,Negative*%
%FSLAX46Y46*%
G04 Gerber Fmt 4.6, Leading zero omitted, Abs format (unit mm)*
G04 Created by KiCad (PCBNEW (5.1.10)-1) date 2021-08-19 11:13:35*
%MOMM*%
%LPD*%
G01*
G04 APERTURE LIST*
%ADD10O,2.400000X1.600000*%
%ADD11R,2.400000X1.600000*%
%ADD12R,1.700000X1.700000*%
%ADD13O,1.700000X1.700000*%
%ADD14C,0.500000*%
G04 APERTURE END LIST*
D10*
%TO.C,U2*%
X151514401Y-68300001D03*
X129054401Y-147040001D03*
X151514401Y-70840001D03*
X129054401Y-144500001D03*
X151514401Y-73380001D03*
X129054401Y-141960001D03*
X151514401Y-75920001D03*
X129054401Y-139420001D03*
X151514401Y-78460001D03*
X129054401Y-136880001D03*
X151514401Y-81000001D03*
X129054401Y-134340001D03*
X151514401Y-83540001D03*
X129054401Y-131800001D03*
X151514401Y-86080001D03*
X129054401Y-129260001D03*
X151514401Y-88620001D03*
X129054401Y-126720001D03*
X151514401Y-91160001D03*
X129054401Y-124180001D03*
X151514401Y-93700001D03*
X129054401Y-121640001D03*
X151514401Y-96240001D03*
X129054401Y-119100001D03*
X151514401Y-98780001D03*
X129054401Y-116560001D03*
X151514401Y-101320001D03*
X129054401Y-114020001D03*
X151514401Y-103860001D03*
X129054401Y-111480001D03*
X151514401Y-106400001D03*
X129054401Y-108940001D03*
X151514401Y-108940001D03*
X129054401Y-106400001D03*
X151514401Y-111480001D03*
X129054401Y-103860001D03*
X151514401Y-114020001D03*
X129054401Y-101320001D03*
X151514401Y-116560001D03*
X129054401Y-98780001D03*
X151514401Y-119100001D03*
X129054401Y-96240001D03*
X151514401Y-121640001D03*
X129054401Y-93700001D03*
X151514401Y-124180001D03*
X129054401Y-91160001D03*
X151514401Y-126720001D03*
X129054401Y-88620001D03*
X151514401Y-129260001D03*
X129054401Y-86080001D03*
X151514401Y-131800001D03*
X129054401Y-83540001D03*
X151514401Y-134340001D03*
X129054401Y-81000001D03*
X151514401Y-136880001D03*
X129054401Y-78460001D03*
X151514401Y-139420001D03*
X129054401Y-75920001D03*
X151514401Y-141960001D03*
X129054401Y-73380001D03*
X151514401Y-144500001D03*
X129054401Y-70840001D03*
X151514401Y-147040001D03*
D11*
X129054401Y-68300001D03*
%TD*%
D12*
%TO.C,J2*%
X163830000Y-147320000D03*
D13*
X166370000Y-147320000D03*
X163830000Y-144780000D03*
X166370000Y-144780000D03*
X163830000Y-142240000D03*
X166370000Y-142240000D03*
X163830000Y-139700000D03*
X166370000Y-139700000D03*
X163830000Y-137160000D03*
X166370000Y-137160000D03*
X163830000Y-134620000D03*
X166370000Y-134620000D03*
X163830000Y-132080000D03*
X166370000Y-132080000D03*
X163830000Y-129540000D03*
X166370000Y-129540000D03*
X163830000Y-127000000D03*
X166370000Y-127000000D03*
X163830000Y-124460000D03*
X166370000Y-124460000D03*
X163830000Y-121920000D03*
X166370000Y-121920000D03*
X163830000Y-119380000D03*
X166370000Y-119380000D03*
%TD*%
D14*
%TO.C,J1*%
X111665000Y-60755000D03*
X115665000Y-60755000D03*
%TD*%
D12*
%TO.C,J3*%
X101219000Y-153289000D03*
D13*
X103759000Y-153289000D03*
X106299000Y-153289000D03*
X108839000Y-153289000D03*
X111379000Y-153289000D03*
X113919000Y-153289000D03*
%TD*%
D12*
%TO.C,J4*%
X164211000Y-66929000D03*
D13*
X164211000Y-69469000D03*
X164211000Y-72009000D03*
X164211000Y-74549000D03*
X164211000Y-77089000D03*
X164211000Y-79629000D03*
X164211000Y-82169000D03*
X164211000Y-84709000D03*
X164211000Y-87249000D03*
X164211000Y-89789000D03*
X164211000Y-92329000D03*
X164211000Y-94869000D03*
X164211000Y-97409000D03*
X164211000Y-99949000D03*
X164211000Y-102489000D03*
X164211000Y-105029000D03*
%TD*%
D12*
%TO.C,J5*%
X166751000Y-66929000D03*
D13*
X166751000Y-69469000D03*
X166751000Y-72009000D03*
X166751000Y-74549000D03*
X166751000Y-77089000D03*
X166751000Y-79629000D03*
X166751000Y-82169000D03*
X166751000Y-84709000D03*
X166751000Y-87249000D03*
X166751000Y-89789000D03*
X166751000Y-92329000D03*
X166751000Y-94869000D03*
X166751000Y-97409000D03*
X166751000Y-99949000D03*
X166751000Y-102489000D03*
X166751000Y-105029000D03*
%TD*%
%TO.C,J6*%
X169291000Y-105029000D03*
X169291000Y-102489000D03*
X169291000Y-99949000D03*
X169291000Y-97409000D03*
X169291000Y-94869000D03*
X169291000Y-92329000D03*
X169291000Y-89789000D03*
X169291000Y-87249000D03*
X169291000Y-84709000D03*
X169291000Y-82169000D03*
X169291000Y-79629000D03*
X169291000Y-77089000D03*
X169291000Y-74549000D03*
X169291000Y-72009000D03*
X169291000Y-69469000D03*
D12*
X169291000Y-66929000D03*
%TD*%
%TO.C,J7*%
X96012000Y-90424000D03*
D13*
X98552000Y-90424000D03*
X96012000Y-87884000D03*
X98552000Y-87884000D03*
X96012000Y-85344000D03*
X98552000Y-85344000D03*
X96012000Y-82804000D03*
X98552000Y-82804000D03*
X96012000Y-80264000D03*
X98552000Y-80264000D03*
X96012000Y-77724000D03*
X98552000Y-77724000D03*
X96012000Y-75184000D03*
X98552000Y-75184000D03*
X96012000Y-72644000D03*
X98552000Y-72644000D03*
X96012000Y-70104000D03*
X98552000Y-70104000D03*
X96012000Y-67564000D03*
X98552000Y-67564000D03*
X96012000Y-65024000D03*
X98552000Y-65024000D03*
X96012000Y-62484000D03*
X98552000Y-62484000D03*
X96012000Y-59944000D03*
X98552000Y-59944000D03*
%TD*%
D12*
%TO.C,J8*%
X101092000Y-90424000D03*
D13*
X101092000Y-87884000D03*
X101092000Y-85344000D03*
X101092000Y-82804000D03*
X101092000Y-80264000D03*
X101092000Y-77724000D03*
X101092000Y-75184000D03*
X101092000Y-72644000D03*
X101092000Y-70104000D03*
X101092000Y-67564000D03*
X101092000Y-65024000D03*
X101092000Y-62484000D03*
X101092000Y-59944000D03*
%TD*%
D12*
%TO.C,J9*%
X92710000Y-131953000D03*
D13*
X92710000Y-129413000D03*
%TD*%
M02*
