M48
; DRILL file {KiCad (5.1.7)-1} date 06/19/21 18:33:12
; FORMAT={-:-/ absolute / inch / decimal}
; #@! TF.CreationDate,2021-06-19T18:33:12+01:00
; #@! TF.GenerationSoftware,Kicad,Pcbnew,(5.1.7)-1
; #@! TF.FileFunction,Plated,1,2,PTH
FMAT,2
INCH
T1C0.0157
T2C0.0315
T3C0.0394
%
G90
G05
T1
X3.485Y-3.725
X3.595Y-3.725
X3.6247Y-5.3853
X3.625Y-6.02
X3.645Y-2.42
X3.66Y-2.27
X3.86Y-2.27
X3.935Y-2.32
X3.985Y-6.035
X4.0285Y-3.41
X4.055Y-2.275
X4.07Y-5.935
X4.0751Y-3.629
X4.1387Y-3.245
X4.14Y-2.305
X4.1565Y-3.375
X4.1725Y-5.9125
X4.18Y-2.42
X4.1825Y-3.4176
X4.225Y-4.325
X4.23Y-2.305
X4.24Y-3.66
X4.25Y-4.445
X4.25Y-4.5
X4.285Y-5.885
X4.3752Y-5.9052
X4.42Y-2.3
X4.4252Y-5.8802
X4.5211Y-2.4961
X4.55Y-2.3
X4.6137Y-4.44
X4.6285Y-4.3654
X4.63Y-4.275
X4.65Y-4.08
X4.715Y-4.45
X4.745Y-4.515
X4.75Y-2.27
X4.75Y-2.4
X4.7796Y-4.9208
X4.78Y-3.93
X5.19Y-2.7215
X5.21Y-3.575
X5.315Y-2.7037
X5.32Y-3.645
X5.385Y-3.59
X5.39Y-2.686
X5.439Y-2.667
X5.445Y-3.645
X5.59Y-3.57
X5.7Y-3.57
X5.845Y-3.575
X5.85Y-3.735
X6.9397Y-4.3203
X6.9853Y-6.0997
X7.0897Y-2.7103
X7.0903Y-3.9947
X7.0947Y-4.3203
X7.1153Y-6.0997
T3
X3.78Y-2.36
X3.78Y-2.46
X3.78Y-2.56
X3.78Y-2.66
X3.78Y-2.76
X3.78Y-2.86
X3.78Y-2.96
X3.78Y-3.06
X3.78Y-3.16
X3.78Y-3.26
X3.78Y-3.36
X3.78Y-3.46
X3.78Y-3.56
X3.88Y-2.36
X3.88Y-2.46
X3.88Y-2.56
X3.88Y-2.66
X3.88Y-2.76
X3.88Y-2.86
X3.88Y-2.96
X3.88Y-3.06
X3.88Y-3.16
X3.88Y-3.26
X3.88Y-3.36
X3.88Y-3.46
X3.88Y-3.56
X6.665Y-2.635
X6.665Y-2.735
X6.665Y-2.835
X6.665Y-2.935
X6.665Y-3.035
X6.665Y-3.135
X6.665Y-3.235
X6.665Y-3.335
X6.665Y-3.435
X6.665Y-3.535
X6.665Y-3.635
X6.665Y-3.735
X6.665Y-3.835
X6.665Y-3.935
X6.665Y-4.035
X6.665Y-4.135
X6.45Y-4.7
X6.45Y-4.8
X6.45Y-4.9
X6.45Y-5.0
X6.45Y-5.1
X6.45Y-5.2
X6.45Y-5.3
X6.45Y-5.4
X6.45Y-5.5
X6.45Y-5.6
X6.45Y-5.7
X6.45Y-5.8
X6.55Y-4.7
X6.55Y-4.8
X6.55Y-4.9
X6.55Y-5.0
X6.55Y-5.1
X6.55Y-5.2
X6.55Y-5.3
X6.55Y-5.4
X6.55Y-5.5
X6.55Y-5.6
X6.55Y-5.7
X6.55Y-5.8
X3.65Y-5.095
X3.65Y-5.195
X3.98Y-2.36
X3.98Y-2.46
X3.98Y-2.56
X3.98Y-2.66
X3.98Y-2.76
X3.98Y-2.86
X3.98Y-2.96
X3.98Y-3.06
X3.98Y-3.16
X3.98Y-3.26
X3.98Y-3.36
X3.98Y-3.46
X3.98Y-3.56
X6.465Y-2.635
X6.465Y-2.735
X6.465Y-2.835
X6.465Y-2.935
X6.465Y-3.035
X6.465Y-3.135
X6.465Y-3.235
X6.465Y-3.335
X6.465Y-3.435
X6.465Y-3.535
X6.465Y-3.635
X6.465Y-3.735
X6.465Y-3.835
X6.465Y-3.935
X6.465Y-4.035
X6.465Y-4.135
X6.565Y-2.635
X6.565Y-2.735
X6.565Y-2.835
X6.565Y-2.935
X6.565Y-3.035
X6.565Y-3.135
X6.565Y-3.235
X6.565Y-3.335
X6.565Y-3.435
X6.565Y-3.535
X6.565Y-3.635
X6.565Y-3.735
X6.565Y-3.835
X6.565Y-3.935
X6.565Y-4.035
X6.565Y-4.135
X3.985Y-6.035
X4.085Y-6.035
X4.185Y-6.035
X4.285Y-6.035
X4.385Y-6.035
X4.485Y-6.035
T2
G00X5.0691Y-2.689
M15
G01X5.0769Y-2.689
M16
G05
G00X5.0691Y-2.789
M15
G01X5.0769Y-2.789
M16
G05
G00X5.0691Y-2.889
M15
G01X5.0769Y-2.889
M16
G05
G00X5.0691Y-2.989
M15
G01X5.0769Y-2.989
M16
G05
G00X5.0691Y-3.089
M15
G01X5.0769Y-3.089
M16
G05
G00X5.0691Y-3.189
M15
G01X5.0769Y-3.189
M16
G05
G00X5.0691Y-3.289
M15
G01X5.0769Y-3.289
M16
G05
G00X5.0691Y-3.389
M15
G01X5.0769Y-3.389
M16
G05
G00X5.0691Y-3.489
M15
G01X5.0769Y-3.489
M16
G05
G00X5.0691Y-3.589
M15
G01X5.0769Y-3.589
M16
G05
G00X5.0691Y-3.689
M15
G01X5.0769Y-3.689
M16
G05
G00X5.0691Y-3.789
M15
G01X5.0769Y-3.789
M16
G05
G00X5.0691Y-3.889
M15
G01X5.0769Y-3.889
M16
G05
G00X5.0691Y-3.989
M15
G01X5.0769Y-3.989
M16
G05
G00X5.0691Y-4.089
M15
G01X5.0769Y-4.089
M16
G05
G00X5.0691Y-4.189
M15
G01X5.0769Y-4.189
M16
G05
G00X5.0691Y-4.289
M15
G01X5.0769Y-4.289
M16
G05
G00X5.0691Y-4.389
M15
G01X5.0769Y-4.389
M16
G05
G00X5.0691Y-4.489
M15
G01X5.0769Y-4.489
M16
G05
G00X5.0691Y-4.589
M15
G01X5.0769Y-4.589
M16
G05
G00X5.0691Y-4.689
M15
G01X5.0769Y-4.689
M16
G05
G00X5.0691Y-4.789
M15
G01X5.0769Y-4.789
M16
G05
G00X5.0691Y-4.889
M15
G01X5.0769Y-4.889
M16
G05
G00X5.0691Y-4.989
M15
G01X5.0769Y-4.989
M16
G05
G00X5.0691Y-5.089
M15
G01X5.0769Y-5.089
M16
G05
G00X5.0691Y-5.189
M15
G01X5.0769Y-5.189
M16
G05
G00X5.0691Y-5.289
M15
G01X5.0769Y-5.289
M16
G05
G00X5.0691Y-5.389
M15
G01X5.0769Y-5.389
M16
G05
G00X5.0691Y-5.489
M15
G01X5.0769Y-5.489
M16
G05
G00X5.0691Y-5.589
M15
G01X5.0769Y-5.589
M16
G05
G00X5.0691Y-5.689
M15
G01X5.0769Y-5.689
M16
G05
G00X5.0691Y-5.789
M15
G01X5.0769Y-5.789
M16
G05
G00X5.9691Y-2.689
M15
G01X5.9769Y-2.689
M16
G05
G00X5.9691Y-2.789
M15
G01X5.9769Y-2.789
M16
G05
G00X5.9691Y-2.889
M15
G01X5.9769Y-2.889
M16
G05
G00X5.9691Y-2.989
M15
G01X5.9769Y-2.989
M16
G05
G00X5.9691Y-3.089
M15
G01X5.9769Y-3.089
M16
G05
G00X5.9691Y-3.189
M15
G01X5.9769Y-3.189
M16
G05
G00X5.9691Y-3.289
M15
G01X5.9769Y-3.289
M16
G05
G00X5.9691Y-3.389
M15
G01X5.9769Y-3.389
M16
G05
G00X5.9691Y-3.489
M15
G01X5.9769Y-3.489
M16
G05
G00X5.9691Y-3.589
M15
G01X5.9769Y-3.589
M16
G05
G00X5.9691Y-3.689
M15
G01X5.9769Y-3.689
M16
G05
G00X5.9691Y-3.789
M15
G01X5.9769Y-3.789
M16
G05
G00X5.9691Y-3.889
M15
G01X5.9769Y-3.889
M16
G05
G00X5.9691Y-3.989
M15
G01X5.9769Y-3.989
M16
G05
G00X5.9691Y-4.089
M15
G01X5.9769Y-4.089
M16
G05
G00X5.9691Y-4.189
M15
G01X5.9769Y-4.189
M16
G05
G00X5.9691Y-4.289
M15
G01X5.9769Y-4.289
M16
G05
G00X5.9691Y-4.389
M15
G01X5.9769Y-4.389
M16
G05
G00X5.9691Y-4.489
M15
G01X5.9769Y-4.489
M16
G05
G00X5.9691Y-4.589
M15
G01X5.9769Y-4.589
M16
G05
G00X5.9691Y-4.689
M15
G01X5.9769Y-4.689
M16
G05
G00X5.9691Y-4.789
M15
G01X5.9769Y-4.789
M16
G05
G00X5.9691Y-4.889
M15
G01X5.9769Y-4.889
M16
G05
G00X5.9691Y-4.989
M15
G01X5.9769Y-4.989
M16
G05
G00X5.9691Y-5.089
M15
G01X5.9769Y-5.089
M16
G05
G00X5.973Y-5.189
M15
G01X5.973Y-5.189
M16
G05
G00X5.9691Y-5.289
M15
G01X5.9769Y-5.289
M16
G05
G00X5.9691Y-5.389
M15
G01X5.9769Y-5.389
M16
G05
G00X5.9691Y-5.489
M15
G01X5.9769Y-5.489
M16
G05
G00X5.9691Y-5.589
M15
G01X5.9769Y-5.589
M16
G05
G00X5.9691Y-5.689
M15
G01X5.9769Y-5.689
M16
G05
G00X5.9691Y-5.789
M15
G01X5.9769Y-5.789
M16
G05
T0
M30
