M48
; DRILL file {KiCad (5.1.7)-1} date 07/01/21 13:34:08
; FORMAT={-:-/ absolute / inch / decimal}
; #@! TF.CreationDate,2021-07-01T13:34:08+01:00
; #@! TF.GenerationSoftware,Kicad,Pcbnew,(5.1.7)-1
; #@! TF.FileFunction,Plated,1,2,PTH
FMAT,2
INCH
T1C0.0157
T2C0.0315
T3C0.0394
%
G90
G05
T1
X3.434Y-6.032
X3.439Y-4.89
X3.444Y-5.259
X3.46Y-2.885
X3.47Y-2.537
X3.47Y-3.275
X3.485Y-3.725
X3.595Y-3.725
X3.621Y-4.874
X3.6247Y-5.3853
X3.625Y-6.02
X3.645Y-2.42
X3.66Y-2.27
X3.86Y-2.27
X3.865Y-5.092
X3.881Y-5.404
X3.932Y-4.189
X3.935Y-2.32
X3.953Y-3.908
X3.985Y-6.035
X4.0285Y-3.41
X4.055Y-2.275
X4.07Y-5.935
X4.0751Y-3.629
X4.078Y-4.89
X4.1387Y-3.245
X4.14Y-2.305
X4.1565Y-3.375
X4.1725Y-5.9125
X4.18Y-2.42
X4.1825Y-3.4176
X4.192Y-3.929
X4.223Y-4.173
X4.225Y-4.325
X4.23Y-2.305
X4.24Y-3.66
X4.25Y-4.445
X4.25Y-4.5
X4.285Y-5.885
X4.364Y-2.755
X4.364Y-3.114
X4.3752Y-5.9052
X4.42Y-2.3
X4.4252Y-5.8802
X4.447Y-5.201
X4.447Y-5.581
X4.467Y-4.817
X4.483Y-4.55
X4.5211Y-2.4961
X4.528Y-4.386
X4.55Y-2.3
X4.587Y-2.875
X4.592Y-3.083
X4.6295Y-4.3647
X4.63Y-4.275
X4.645Y-4.569
X4.65Y-4.08
X4.6625Y-4.4171
X4.691Y-6.017
X4.7353Y-4.4496
X4.75Y-2.27
X4.75Y-2.4
X4.776Y-4.484
X4.78Y-3.93
X4.8045Y-4.924
X4.836Y-5.809
X4.893Y-5.508
X4.912Y-4.146
X4.912Y-4.742
X4.917Y-4.509
X4.921Y-4.934
X4.963Y-5.037
X4.966Y-6.043
X5.172Y-4.34
X5.174Y-2.387
X5.177Y-4.541
X5.182Y-4.713
X5.19Y-2.7215
X5.21Y-3.575
X5.267Y-5.233
X5.267Y-5.653
X5.272Y-4.843
X5.272Y-6.038
X5.309Y-3.166
X5.315Y-2.7037
X5.32Y-3.645
X5.324Y-4.495
X5.385Y-3.59
X5.39Y-2.686
X5.439Y-2.667
X5.445Y-3.645
X5.532Y-5.051
X5.532Y-5.482
X5.542Y-4.677
X5.548Y-3.332
X5.584Y-2.828
X5.59Y-3.57
X5.636Y-6.022
X5.693Y-3.088
X5.7Y-3.57
X5.724Y-2.382
X5.771Y-2.75
X5.771Y-4.48
X5.786Y-4.838
X5.792Y-5.212
X5.833Y-3.337
X5.833Y-5.643
X5.845Y-3.575
X5.85Y-3.735
X5.989Y-6.022
X6.071Y-5.734
X6.103Y-5.251
X6.11Y-5.478
X6.126Y-5.128
X6.133Y-4.988
X6.22Y-5.603
X6.233Y-4.469
X6.259Y-4.189
X6.264Y-2.376
X6.282Y-5.765
X6.373Y-6.022
X6.519Y-4.495
X6.534Y-4.303
X6.649Y-6.022
X6.711Y-2.382
X6.752Y-4.485
X6.903Y-2.511
X6.939Y-4.142
X6.9397Y-4.3203
X6.9853Y-6.0997
X7.0897Y-2.7103
X7.0903Y-3.9947
X7.0947Y-4.3203
X7.1153Y-6.0997
X7.157Y-5.238
X7.168Y-2.517
X7.178Y-4.142
T3
X3.985Y-6.035
X4.085Y-6.035
X4.185Y-6.035
X4.285Y-6.035
X4.385Y-6.035
X4.485Y-6.035
X6.45Y-4.7
X6.45Y-4.8
X6.45Y-4.9
X6.45Y-5.0
X6.45Y-5.1
X6.45Y-5.2
X6.45Y-5.3
X6.45Y-5.4
X6.45Y-5.5
X6.45Y-5.6
X6.45Y-5.7
X6.45Y-5.8
X6.55Y-4.7
X6.55Y-4.8
X6.55Y-4.9
X6.55Y-5.0
X6.55Y-5.1
X6.55Y-5.2
X6.55Y-5.3
X6.55Y-5.4
X6.55Y-5.5
X6.55Y-5.6
X6.55Y-5.7
X6.55Y-5.8
X3.65Y-5.095
X3.65Y-5.195
X6.665Y-2.635
X6.665Y-2.735
X6.665Y-2.835
X6.665Y-2.935
X6.665Y-3.035
X6.665Y-3.135
X6.665Y-3.235
X6.665Y-3.335
X6.665Y-3.435
X6.665Y-3.535
X6.665Y-3.635
X6.665Y-3.735
X6.665Y-3.835
X6.665Y-3.935
X6.665Y-4.035
X6.665Y-4.135
X3.98Y-2.36
X3.98Y-2.46
X3.98Y-2.56
X3.98Y-2.66
X3.98Y-2.76
X3.98Y-2.86
X3.98Y-2.96
X3.98Y-3.06
X3.98Y-3.16
X3.98Y-3.26
X3.98Y-3.36
X3.98Y-3.46
X3.98Y-3.56
X6.565Y-2.635
X6.565Y-2.735
X6.565Y-2.835
X6.565Y-2.935
X6.565Y-3.035
X6.565Y-3.135
X6.565Y-3.235
X6.565Y-3.335
X6.565Y-3.435
X6.565Y-3.535
X6.565Y-3.635
X6.565Y-3.735
X6.565Y-3.835
X6.565Y-3.935
X6.565Y-4.035
X6.565Y-4.135
X6.465Y-2.635
X6.465Y-2.735
X6.465Y-2.835
X6.465Y-2.935
X6.465Y-3.035
X6.465Y-3.135
X6.465Y-3.235
X6.465Y-3.335
X6.465Y-3.435
X6.465Y-3.535
X6.465Y-3.635
X6.465Y-3.735
X6.465Y-3.835
X6.465Y-3.935
X6.465Y-4.035
X6.465Y-4.135
X3.78Y-2.36
X3.78Y-2.46
X3.78Y-2.56
X3.78Y-2.66
X3.78Y-2.76
X3.78Y-2.86
X3.78Y-2.96
X3.78Y-3.06
X3.78Y-3.16
X3.78Y-3.26
X3.78Y-3.36
X3.78Y-3.46
X3.78Y-3.56
X3.88Y-2.36
X3.88Y-2.46
X3.88Y-2.56
X3.88Y-2.66
X3.88Y-2.76
X3.88Y-2.86
X3.88Y-2.96
X3.88Y-3.06
X3.88Y-3.16
X3.88Y-3.26
X3.88Y-3.36
X3.88Y-3.46
X3.88Y-3.56
T2
G00X5.0691Y-2.689
M15
G01X5.0769Y-2.689
M16
G05
G00X5.0691Y-2.789
M15
G01X5.0769Y-2.789
M16
G05
G00X5.0691Y-2.889
M15
G01X5.0769Y-2.889
M16
G05
G00X5.0691Y-2.989
M15
G01X5.0769Y-2.989
M16
G05
G00X5.0691Y-3.089
M15
G01X5.0769Y-3.089
M16
G05
G00X5.0691Y-3.189
M15
G01X5.0769Y-3.189
M16
G05
G00X5.0691Y-3.289
M15
G01X5.0769Y-3.289
M16
G05
G00X5.0691Y-3.389
M15
G01X5.0769Y-3.389
M16
G05
G00X5.0691Y-3.489
M15
G01X5.0769Y-3.489
M16
G05
G00X5.0691Y-3.589
M15
G01X5.0769Y-3.589
M16
G05
G00X5.0691Y-3.689
M15
G01X5.0769Y-3.689
M16
G05
G00X5.0691Y-3.789
M15
G01X5.0769Y-3.789
M16
G05
G00X5.0691Y-3.889
M15
G01X5.0769Y-3.889
M16
G05
G00X5.0691Y-3.989
M15
G01X5.0769Y-3.989
M16
G05
G00X5.0691Y-4.089
M15
G01X5.0769Y-4.089
M16
G05
G00X5.0691Y-4.189
M15
G01X5.0769Y-4.189
M16
G05
G00X5.0691Y-4.289
M15
G01X5.0769Y-4.289
M16
G05
G00X5.0691Y-4.389
M15
G01X5.0769Y-4.389
M16
G05
G00X5.0691Y-4.489
M15
G01X5.0769Y-4.489
M16
G05
G00X5.0691Y-4.589
M15
G01X5.0769Y-4.589
M16
G05
G00X5.0691Y-4.689
M15
G01X5.0769Y-4.689
M16
G05
G00X5.0691Y-4.789
M15
G01X5.0769Y-4.789
M16
G05
G00X5.0691Y-4.889
M15
G01X5.0769Y-4.889
M16
G05
G00X5.0691Y-4.989
M15
G01X5.0769Y-4.989
M16
G05
G00X5.0691Y-5.089
M15
G01X5.0769Y-5.089
M16
G05
G00X5.0691Y-5.189
M15
G01X5.0769Y-5.189
M16
G05
G00X5.0691Y-5.289
M15
G01X5.0769Y-5.289
M16
G05
G00X5.0691Y-5.389
M15
G01X5.0769Y-5.389
M16
G05
G00X5.0691Y-5.489
M15
G01X5.0769Y-5.489
M16
G05
G00X5.0691Y-5.589
M15
G01X5.0769Y-5.589
M16
G05
G00X5.0691Y-5.689
M15
G01X5.0769Y-5.689
M16
G05
G00X5.0691Y-5.789
M15
G01X5.0769Y-5.789
M16
G05
G00X5.9691Y-2.689
M15
G01X5.9769Y-2.689
M16
G05
G00X5.9691Y-2.789
M15
G01X5.9769Y-2.789
M16
G05
G00X5.9691Y-2.889
M15
G01X5.9769Y-2.889
M16
G05
G00X5.9691Y-2.989
M15
G01X5.9769Y-2.989
M16
G05
G00X5.9691Y-3.089
M15
G01X5.9769Y-3.089
M16
G05
G00X5.9691Y-3.189
M15
G01X5.9769Y-3.189
M16
G05
G00X5.9691Y-3.289
M15
G01X5.9769Y-3.289
M16
G05
G00X5.9691Y-3.389
M15
G01X5.9769Y-3.389
M16
G05
G00X5.9691Y-3.489
M15
G01X5.9769Y-3.489
M16
G05
G00X5.9691Y-3.589
M15
G01X5.9769Y-3.589
M16
G05
G00X5.9691Y-3.689
M15
G01X5.9769Y-3.689
M16
G05
G00X5.9691Y-3.789
M15
G01X5.9769Y-3.789
M16
G05
G00X5.9691Y-3.889
M15
G01X5.9769Y-3.889
M16
G05
G00X5.9691Y-3.989
M15
G01X5.9769Y-3.989
M16
G05
G00X5.9691Y-4.089
M15
G01X5.9769Y-4.089
M16
G05
G00X5.9691Y-4.189
M15
G01X5.9769Y-4.189
M16
G05
G00X5.9691Y-4.289
M15
G01X5.9769Y-4.289
M16
G05
G00X5.9691Y-4.389
M15
G01X5.9769Y-4.389
M16
G05
G00X5.9691Y-4.489
M15
G01X5.9769Y-4.489
M16
G05
G00X5.9691Y-4.589
M15
G01X5.9769Y-4.589
M16
G05
G00X5.9691Y-4.689
M15
G01X5.9769Y-4.689
M16
G05
G00X5.9691Y-4.789
M15
G01X5.9769Y-4.789
M16
G05
G00X5.9691Y-4.889
M15
G01X5.9769Y-4.889
M16
G05
G00X5.9691Y-4.989
M15
G01X5.9769Y-4.989
M16
G05
G00X5.9691Y-5.089
M15
G01X5.9769Y-5.089
M16
G05
G00X5.973Y-5.189
M15
G01X5.973Y-5.189
M16
G05
G00X5.9691Y-5.289
M15
G01X5.9769Y-5.289
M16
G05
G00X5.9691Y-5.389
M15
G01X5.9769Y-5.389
M16
G05
G00X5.9691Y-5.489
M15
G01X5.9769Y-5.489
M16
G05
G00X5.9691Y-5.589
M15
G01X5.9769Y-5.589
M16
G05
G00X5.9691Y-5.689
M15
G01X5.9769Y-5.689
M16
G05
G00X5.9691Y-5.789
M15
G01X5.9769Y-5.789
M16
G05
T0
M30
