%TF.GenerationSoftware,KiCad,Pcbnew,(5.1.10)-1*%
%TF.CreationDate,2021-08-19T11:13:35+01:00*%
%TF.ProjectId,PistormTester,50697374-6f72-46d5-9465-737465722e6b,rev?*%
%TF.SameCoordinates,Original*%
%TF.FileFunction,Soldermask,Top*%
%TF.FilePolarity,Negative*%
%FSLAX46Y46*%
G04 Gerber Fmt 4.6, Leading zero omitted, Abs format (unit mm)*
G04 Created by KiCad (PCBNEW (5.1.10)-1) date 2021-08-19 11:13:35*
%MOMM*%
%LPD*%
G01*
G04 APERTURE LIST*
%ADD10O,2.400000X1.600000*%
%ADD11R,2.400000X1.600000*%
%ADD12R,1.700000X1.700000*%
%ADD13O,1.700000X1.700000*%
%ADD14R,0.400000X1.900000*%
%ADD15C,0.500000*%
%ADD16R,1.400000X1.200000*%
%ADD17R,1.400000X1.600000*%
%ADD18R,1.400000X1.500000*%
%ADD19R,0.320000X0.500000*%
%ADD20R,0.900000X1.000000*%
G04 APERTURE END LIST*
D10*
%TO.C,U2*%
X151514401Y-68300001D03*
X129054401Y-147040001D03*
X151514401Y-70840001D03*
X129054401Y-144500001D03*
X151514401Y-73380001D03*
X129054401Y-141960001D03*
X151514401Y-75920001D03*
X129054401Y-139420001D03*
X151514401Y-78460001D03*
X129054401Y-136880001D03*
X151514401Y-81000001D03*
X129054401Y-134340001D03*
X151514401Y-83540001D03*
X129054401Y-131800001D03*
X151514401Y-86080001D03*
X129054401Y-129260001D03*
X151514401Y-88620001D03*
X129054401Y-126720001D03*
X151514401Y-91160001D03*
X129054401Y-124180001D03*
X151514401Y-93700001D03*
X129054401Y-121640001D03*
X151514401Y-96240001D03*
X129054401Y-119100001D03*
X151514401Y-98780001D03*
X129054401Y-116560001D03*
X151514401Y-101320001D03*
X129054401Y-114020001D03*
X151514401Y-103860001D03*
X129054401Y-111480001D03*
X151514401Y-106400001D03*
X129054401Y-108940001D03*
X151514401Y-108940001D03*
X129054401Y-106400001D03*
X151514401Y-111480001D03*
X129054401Y-103860001D03*
X151514401Y-114020001D03*
X129054401Y-101320001D03*
X151514401Y-116560001D03*
X129054401Y-98780001D03*
X151514401Y-119100001D03*
X129054401Y-96240001D03*
X151514401Y-121640001D03*
X129054401Y-93700001D03*
X151514401Y-124180001D03*
X129054401Y-91160001D03*
X151514401Y-126720001D03*
X129054401Y-88620001D03*
X151514401Y-129260001D03*
X129054401Y-86080001D03*
X151514401Y-131800001D03*
X129054401Y-83540001D03*
X151514401Y-134340001D03*
X129054401Y-81000001D03*
X151514401Y-136880001D03*
X129054401Y-78460001D03*
X151514401Y-139420001D03*
X129054401Y-75920001D03*
X151514401Y-141960001D03*
X129054401Y-73380001D03*
X151514401Y-144500001D03*
X129054401Y-70840001D03*
X151514401Y-147040001D03*
D11*
X129054401Y-68300001D03*
%TD*%
D12*
%TO.C,J2*%
X163830000Y-147320000D03*
D13*
X166370000Y-147320000D03*
X163830000Y-144780000D03*
X166370000Y-144780000D03*
X163830000Y-142240000D03*
X166370000Y-142240000D03*
X163830000Y-139700000D03*
X166370000Y-139700000D03*
X163830000Y-137160000D03*
X166370000Y-137160000D03*
X163830000Y-134620000D03*
X166370000Y-134620000D03*
X163830000Y-132080000D03*
X166370000Y-132080000D03*
X163830000Y-129540000D03*
X166370000Y-129540000D03*
X163830000Y-127000000D03*
X166370000Y-127000000D03*
X163830000Y-124460000D03*
X166370000Y-124460000D03*
X163830000Y-121920000D03*
X166370000Y-121920000D03*
X163830000Y-119380000D03*
X166370000Y-119380000D03*
%TD*%
%TO.C,C1*%
G36*
G01*
X120088000Y-99992000D02*
X120088000Y-99652000D01*
G75*
G02*
X120228000Y-99512000I140000J0D01*
G01*
X120508000Y-99512000D01*
G75*
G02*
X120648000Y-99652000I0J-140000D01*
G01*
X120648000Y-99992000D01*
G75*
G02*
X120508000Y-100132000I-140000J0D01*
G01*
X120228000Y-100132000D01*
G75*
G02*
X120088000Y-99992000I0J140000D01*
G01*
G37*
G36*
G01*
X119128000Y-99992000D02*
X119128000Y-99652000D01*
G75*
G02*
X119268000Y-99512000I140000J0D01*
G01*
X119548000Y-99512000D01*
G75*
G02*
X119688000Y-99652000I0J-140000D01*
G01*
X119688000Y-99992000D01*
G75*
G02*
X119548000Y-100132000I-140000J0D01*
G01*
X119268000Y-100132000D01*
G75*
G02*
X119128000Y-99992000I0J140000D01*
G01*
G37*
%TD*%
%TO.C,C2*%
G36*
G01*
X121029000Y-105113000D02*
X121029000Y-105453000D01*
G75*
G02*
X120889000Y-105593000I-140000J0D01*
G01*
X120609000Y-105593000D01*
G75*
G02*
X120469000Y-105453000I0J140000D01*
G01*
X120469000Y-105113000D01*
G75*
G02*
X120609000Y-104973000I140000J0D01*
G01*
X120889000Y-104973000D01*
G75*
G02*
X121029000Y-105113000I0J-140000D01*
G01*
G37*
G36*
G01*
X120069000Y-105113000D02*
X120069000Y-105453000D01*
G75*
G02*
X119929000Y-105593000I-140000J0D01*
G01*
X119649000Y-105593000D01*
G75*
G02*
X119509000Y-105453000I0J140000D01*
G01*
X119509000Y-105113000D01*
G75*
G02*
X119649000Y-104973000I140000J0D01*
G01*
X119929000Y-104973000D01*
G75*
G02*
X120069000Y-105113000I0J-140000D01*
G01*
G37*
%TD*%
%TO.C,D1*%
G36*
G01*
X176434000Y-150619750D02*
X176434000Y-151132250D01*
G75*
G02*
X176215250Y-151351000I-218750J0D01*
G01*
X175777750Y-151351000D01*
G75*
G02*
X175559000Y-151132250I0J218750D01*
G01*
X175559000Y-150619750D01*
G75*
G02*
X175777750Y-150401000I218750J0D01*
G01*
X176215250Y-150401000D01*
G75*
G02*
X176434000Y-150619750I0J-218750D01*
G01*
G37*
G36*
G01*
X178009000Y-150619750D02*
X178009000Y-151132250D01*
G75*
G02*
X177790250Y-151351000I-218750J0D01*
G01*
X177352750Y-151351000D01*
G75*
G02*
X177134000Y-151132250I0J218750D01*
G01*
X177134000Y-150619750D01*
G75*
G02*
X177352750Y-150401000I218750J0D01*
G01*
X177790250Y-150401000D01*
G75*
G02*
X178009000Y-150619750I0J-218750D01*
G01*
G37*
%TD*%
%TO.C,D2*%
G36*
G01*
X178009000Y-149095750D02*
X178009000Y-149608250D01*
G75*
G02*
X177790250Y-149827000I-218750J0D01*
G01*
X177352750Y-149827000D01*
G75*
G02*
X177134000Y-149608250I0J218750D01*
G01*
X177134000Y-149095750D01*
G75*
G02*
X177352750Y-148877000I218750J0D01*
G01*
X177790250Y-148877000D01*
G75*
G02*
X178009000Y-149095750I0J-218750D01*
G01*
G37*
G36*
G01*
X176434000Y-149095750D02*
X176434000Y-149608250D01*
G75*
G02*
X176215250Y-149827000I-218750J0D01*
G01*
X175777750Y-149827000D01*
G75*
G02*
X175559000Y-149608250I0J218750D01*
G01*
X175559000Y-149095750D01*
G75*
G02*
X175777750Y-148877000I218750J0D01*
G01*
X176215250Y-148877000D01*
G75*
G02*
X176434000Y-149095750I0J-218750D01*
G01*
G37*
%TD*%
%TO.C,D3*%
G36*
G01*
X176434000Y-147571750D02*
X176434000Y-148084250D01*
G75*
G02*
X176215250Y-148303000I-218750J0D01*
G01*
X175777750Y-148303000D01*
G75*
G02*
X175559000Y-148084250I0J218750D01*
G01*
X175559000Y-147571750D01*
G75*
G02*
X175777750Y-147353000I218750J0D01*
G01*
X176215250Y-147353000D01*
G75*
G02*
X176434000Y-147571750I0J-218750D01*
G01*
G37*
G36*
G01*
X178009000Y-147571750D02*
X178009000Y-148084250D01*
G75*
G02*
X177790250Y-148303000I-218750J0D01*
G01*
X177352750Y-148303000D01*
G75*
G02*
X177134000Y-148084250I0J218750D01*
G01*
X177134000Y-147571750D01*
G75*
G02*
X177352750Y-147353000I218750J0D01*
G01*
X177790250Y-147353000D01*
G75*
G02*
X178009000Y-147571750I0J-218750D01*
G01*
G37*
%TD*%
%TO.C,D4*%
G36*
G01*
X178009000Y-146047750D02*
X178009000Y-146560250D01*
G75*
G02*
X177790250Y-146779000I-218750J0D01*
G01*
X177352750Y-146779000D01*
G75*
G02*
X177134000Y-146560250I0J218750D01*
G01*
X177134000Y-146047750D01*
G75*
G02*
X177352750Y-145829000I218750J0D01*
G01*
X177790250Y-145829000D01*
G75*
G02*
X178009000Y-146047750I0J-218750D01*
G01*
G37*
G36*
G01*
X176434000Y-146047750D02*
X176434000Y-146560250D01*
G75*
G02*
X176215250Y-146779000I-218750J0D01*
G01*
X175777750Y-146779000D01*
G75*
G02*
X175559000Y-146560250I0J218750D01*
G01*
X175559000Y-146047750D01*
G75*
G02*
X175777750Y-145829000I218750J0D01*
G01*
X176215250Y-145829000D01*
G75*
G02*
X176434000Y-146047750I0J-218750D01*
G01*
G37*
%TD*%
%TO.C,D5*%
G36*
G01*
X176434000Y-144523750D02*
X176434000Y-145036250D01*
G75*
G02*
X176215250Y-145255000I-218750J0D01*
G01*
X175777750Y-145255000D01*
G75*
G02*
X175559000Y-145036250I0J218750D01*
G01*
X175559000Y-144523750D01*
G75*
G02*
X175777750Y-144305000I218750J0D01*
G01*
X176215250Y-144305000D01*
G75*
G02*
X176434000Y-144523750I0J-218750D01*
G01*
G37*
G36*
G01*
X178009000Y-144523750D02*
X178009000Y-145036250D01*
G75*
G02*
X177790250Y-145255000I-218750J0D01*
G01*
X177352750Y-145255000D01*
G75*
G02*
X177134000Y-145036250I0J218750D01*
G01*
X177134000Y-144523750D01*
G75*
G02*
X177352750Y-144305000I218750J0D01*
G01*
X177790250Y-144305000D01*
G75*
G02*
X178009000Y-144523750I0J-218750D01*
G01*
G37*
%TD*%
%TO.C,D6*%
G36*
G01*
X178009000Y-142999750D02*
X178009000Y-143512250D01*
G75*
G02*
X177790250Y-143731000I-218750J0D01*
G01*
X177352750Y-143731000D01*
G75*
G02*
X177134000Y-143512250I0J218750D01*
G01*
X177134000Y-142999750D01*
G75*
G02*
X177352750Y-142781000I218750J0D01*
G01*
X177790250Y-142781000D01*
G75*
G02*
X178009000Y-142999750I0J-218750D01*
G01*
G37*
G36*
G01*
X176434000Y-142999750D02*
X176434000Y-143512250D01*
G75*
G02*
X176215250Y-143731000I-218750J0D01*
G01*
X175777750Y-143731000D01*
G75*
G02*
X175559000Y-143512250I0J218750D01*
G01*
X175559000Y-142999750D01*
G75*
G02*
X175777750Y-142781000I218750J0D01*
G01*
X176215250Y-142781000D01*
G75*
G02*
X176434000Y-142999750I0J-218750D01*
G01*
G37*
%TD*%
%TO.C,D7*%
G36*
G01*
X176434000Y-141475750D02*
X176434000Y-141988250D01*
G75*
G02*
X176215250Y-142207000I-218750J0D01*
G01*
X175777750Y-142207000D01*
G75*
G02*
X175559000Y-141988250I0J218750D01*
G01*
X175559000Y-141475750D01*
G75*
G02*
X175777750Y-141257000I218750J0D01*
G01*
X176215250Y-141257000D01*
G75*
G02*
X176434000Y-141475750I0J-218750D01*
G01*
G37*
G36*
G01*
X178009000Y-141475750D02*
X178009000Y-141988250D01*
G75*
G02*
X177790250Y-142207000I-218750J0D01*
G01*
X177352750Y-142207000D01*
G75*
G02*
X177134000Y-141988250I0J218750D01*
G01*
X177134000Y-141475750D01*
G75*
G02*
X177352750Y-141257000I218750J0D01*
G01*
X177790250Y-141257000D01*
G75*
G02*
X178009000Y-141475750I0J-218750D01*
G01*
G37*
%TD*%
%TO.C,D8*%
G36*
G01*
X178009000Y-139951750D02*
X178009000Y-140464250D01*
G75*
G02*
X177790250Y-140683000I-218750J0D01*
G01*
X177352750Y-140683000D01*
G75*
G02*
X177134000Y-140464250I0J218750D01*
G01*
X177134000Y-139951750D01*
G75*
G02*
X177352750Y-139733000I218750J0D01*
G01*
X177790250Y-139733000D01*
G75*
G02*
X178009000Y-139951750I0J-218750D01*
G01*
G37*
G36*
G01*
X176434000Y-139951750D02*
X176434000Y-140464250D01*
G75*
G02*
X176215250Y-140683000I-218750J0D01*
G01*
X175777750Y-140683000D01*
G75*
G02*
X175559000Y-140464250I0J218750D01*
G01*
X175559000Y-139951750D01*
G75*
G02*
X175777750Y-139733000I218750J0D01*
G01*
X176215250Y-139733000D01*
G75*
G02*
X176434000Y-139951750I0J-218750D01*
G01*
G37*
%TD*%
%TO.C,D9*%
G36*
G01*
X176434000Y-138046750D02*
X176434000Y-138559250D01*
G75*
G02*
X176215250Y-138778000I-218750J0D01*
G01*
X175777750Y-138778000D01*
G75*
G02*
X175559000Y-138559250I0J218750D01*
G01*
X175559000Y-138046750D01*
G75*
G02*
X175777750Y-137828000I218750J0D01*
G01*
X176215250Y-137828000D01*
G75*
G02*
X176434000Y-138046750I0J-218750D01*
G01*
G37*
G36*
G01*
X178009000Y-138046750D02*
X178009000Y-138559250D01*
G75*
G02*
X177790250Y-138778000I-218750J0D01*
G01*
X177352750Y-138778000D01*
G75*
G02*
X177134000Y-138559250I0J218750D01*
G01*
X177134000Y-138046750D01*
G75*
G02*
X177352750Y-137828000I218750J0D01*
G01*
X177790250Y-137828000D01*
G75*
G02*
X178009000Y-138046750I0J-218750D01*
G01*
G37*
%TD*%
%TO.C,D10*%
G36*
G01*
X178009000Y-136522750D02*
X178009000Y-137035250D01*
G75*
G02*
X177790250Y-137254000I-218750J0D01*
G01*
X177352750Y-137254000D01*
G75*
G02*
X177134000Y-137035250I0J218750D01*
G01*
X177134000Y-136522750D01*
G75*
G02*
X177352750Y-136304000I218750J0D01*
G01*
X177790250Y-136304000D01*
G75*
G02*
X178009000Y-136522750I0J-218750D01*
G01*
G37*
G36*
G01*
X176434000Y-136522750D02*
X176434000Y-137035250D01*
G75*
G02*
X176215250Y-137254000I-218750J0D01*
G01*
X175777750Y-137254000D01*
G75*
G02*
X175559000Y-137035250I0J218750D01*
G01*
X175559000Y-136522750D01*
G75*
G02*
X175777750Y-136304000I218750J0D01*
G01*
X176215250Y-136304000D01*
G75*
G02*
X176434000Y-136522750I0J-218750D01*
G01*
G37*
%TD*%
%TO.C,D11*%
G36*
G01*
X176434000Y-134998750D02*
X176434000Y-135511250D01*
G75*
G02*
X176215250Y-135730000I-218750J0D01*
G01*
X175777750Y-135730000D01*
G75*
G02*
X175559000Y-135511250I0J218750D01*
G01*
X175559000Y-134998750D01*
G75*
G02*
X175777750Y-134780000I218750J0D01*
G01*
X176215250Y-134780000D01*
G75*
G02*
X176434000Y-134998750I0J-218750D01*
G01*
G37*
G36*
G01*
X178009000Y-134998750D02*
X178009000Y-135511250D01*
G75*
G02*
X177790250Y-135730000I-218750J0D01*
G01*
X177352750Y-135730000D01*
G75*
G02*
X177134000Y-135511250I0J218750D01*
G01*
X177134000Y-134998750D01*
G75*
G02*
X177352750Y-134780000I218750J0D01*
G01*
X177790250Y-134780000D01*
G75*
G02*
X178009000Y-134998750I0J-218750D01*
G01*
G37*
%TD*%
%TO.C,D12*%
G36*
G01*
X178009000Y-133474750D02*
X178009000Y-133987250D01*
G75*
G02*
X177790250Y-134206000I-218750J0D01*
G01*
X177352750Y-134206000D01*
G75*
G02*
X177134000Y-133987250I0J218750D01*
G01*
X177134000Y-133474750D01*
G75*
G02*
X177352750Y-133256000I218750J0D01*
G01*
X177790250Y-133256000D01*
G75*
G02*
X178009000Y-133474750I0J-218750D01*
G01*
G37*
G36*
G01*
X176434000Y-133474750D02*
X176434000Y-133987250D01*
G75*
G02*
X176215250Y-134206000I-218750J0D01*
G01*
X175777750Y-134206000D01*
G75*
G02*
X175559000Y-133987250I0J218750D01*
G01*
X175559000Y-133474750D01*
G75*
G02*
X175777750Y-133256000I218750J0D01*
G01*
X176215250Y-133256000D01*
G75*
G02*
X176434000Y-133474750I0J-218750D01*
G01*
G37*
%TD*%
%TO.C,D13*%
G36*
G01*
X176434000Y-131950750D02*
X176434000Y-132463250D01*
G75*
G02*
X176215250Y-132682000I-218750J0D01*
G01*
X175777750Y-132682000D01*
G75*
G02*
X175559000Y-132463250I0J218750D01*
G01*
X175559000Y-131950750D01*
G75*
G02*
X175777750Y-131732000I218750J0D01*
G01*
X176215250Y-131732000D01*
G75*
G02*
X176434000Y-131950750I0J-218750D01*
G01*
G37*
G36*
G01*
X178009000Y-131950750D02*
X178009000Y-132463250D01*
G75*
G02*
X177790250Y-132682000I-218750J0D01*
G01*
X177352750Y-132682000D01*
G75*
G02*
X177134000Y-132463250I0J218750D01*
G01*
X177134000Y-131950750D01*
G75*
G02*
X177352750Y-131732000I218750J0D01*
G01*
X177790250Y-131732000D01*
G75*
G02*
X178009000Y-131950750I0J-218750D01*
G01*
G37*
%TD*%
%TO.C,D14*%
G36*
G01*
X178009000Y-130426750D02*
X178009000Y-130939250D01*
G75*
G02*
X177790250Y-131158000I-218750J0D01*
G01*
X177352750Y-131158000D01*
G75*
G02*
X177134000Y-130939250I0J218750D01*
G01*
X177134000Y-130426750D01*
G75*
G02*
X177352750Y-130208000I218750J0D01*
G01*
X177790250Y-130208000D01*
G75*
G02*
X178009000Y-130426750I0J-218750D01*
G01*
G37*
G36*
G01*
X176434000Y-130426750D02*
X176434000Y-130939250D01*
G75*
G02*
X176215250Y-131158000I-218750J0D01*
G01*
X175777750Y-131158000D01*
G75*
G02*
X175559000Y-130939250I0J218750D01*
G01*
X175559000Y-130426750D01*
G75*
G02*
X175777750Y-130208000I218750J0D01*
G01*
X176215250Y-130208000D01*
G75*
G02*
X176434000Y-130426750I0J-218750D01*
G01*
G37*
%TD*%
%TO.C,D15*%
G36*
G01*
X176434000Y-128902750D02*
X176434000Y-129415250D01*
G75*
G02*
X176215250Y-129634000I-218750J0D01*
G01*
X175777750Y-129634000D01*
G75*
G02*
X175559000Y-129415250I0J218750D01*
G01*
X175559000Y-128902750D01*
G75*
G02*
X175777750Y-128684000I218750J0D01*
G01*
X176215250Y-128684000D01*
G75*
G02*
X176434000Y-128902750I0J-218750D01*
G01*
G37*
G36*
G01*
X178009000Y-128902750D02*
X178009000Y-129415250D01*
G75*
G02*
X177790250Y-129634000I-218750J0D01*
G01*
X177352750Y-129634000D01*
G75*
G02*
X177134000Y-129415250I0J218750D01*
G01*
X177134000Y-128902750D01*
G75*
G02*
X177352750Y-128684000I218750J0D01*
G01*
X177790250Y-128684000D01*
G75*
G02*
X178009000Y-128902750I0J-218750D01*
G01*
G37*
%TD*%
%TO.C,D16*%
G36*
G01*
X176434000Y-127378750D02*
X176434000Y-127891250D01*
G75*
G02*
X176215250Y-128110000I-218750J0D01*
G01*
X175777750Y-128110000D01*
G75*
G02*
X175559000Y-127891250I0J218750D01*
G01*
X175559000Y-127378750D01*
G75*
G02*
X175777750Y-127160000I218750J0D01*
G01*
X176215250Y-127160000D01*
G75*
G02*
X176434000Y-127378750I0J-218750D01*
G01*
G37*
G36*
G01*
X178009000Y-127378750D02*
X178009000Y-127891250D01*
G75*
G02*
X177790250Y-128110000I-218750J0D01*
G01*
X177352750Y-128110000D01*
G75*
G02*
X177134000Y-127891250I0J218750D01*
G01*
X177134000Y-127378750D01*
G75*
G02*
X177352750Y-127160000I218750J0D01*
G01*
X177790250Y-127160000D01*
G75*
G02*
X178009000Y-127378750I0J-218750D01*
G01*
G37*
%TD*%
%TO.C,D17*%
G36*
G01*
X178009000Y-125473750D02*
X178009000Y-125986250D01*
G75*
G02*
X177790250Y-126205000I-218750J0D01*
G01*
X177352750Y-126205000D01*
G75*
G02*
X177134000Y-125986250I0J218750D01*
G01*
X177134000Y-125473750D01*
G75*
G02*
X177352750Y-125255000I218750J0D01*
G01*
X177790250Y-125255000D01*
G75*
G02*
X178009000Y-125473750I0J-218750D01*
G01*
G37*
G36*
G01*
X176434000Y-125473750D02*
X176434000Y-125986250D01*
G75*
G02*
X176215250Y-126205000I-218750J0D01*
G01*
X175777750Y-126205000D01*
G75*
G02*
X175559000Y-125986250I0J218750D01*
G01*
X175559000Y-125473750D01*
G75*
G02*
X175777750Y-125255000I218750J0D01*
G01*
X176215250Y-125255000D01*
G75*
G02*
X176434000Y-125473750I0J-218750D01*
G01*
G37*
%TD*%
%TO.C,D18*%
G36*
G01*
X176434000Y-123949750D02*
X176434000Y-124462250D01*
G75*
G02*
X176215250Y-124681000I-218750J0D01*
G01*
X175777750Y-124681000D01*
G75*
G02*
X175559000Y-124462250I0J218750D01*
G01*
X175559000Y-123949750D01*
G75*
G02*
X175777750Y-123731000I218750J0D01*
G01*
X176215250Y-123731000D01*
G75*
G02*
X176434000Y-123949750I0J-218750D01*
G01*
G37*
G36*
G01*
X178009000Y-123949750D02*
X178009000Y-124462250D01*
G75*
G02*
X177790250Y-124681000I-218750J0D01*
G01*
X177352750Y-124681000D01*
G75*
G02*
X177134000Y-124462250I0J218750D01*
G01*
X177134000Y-123949750D01*
G75*
G02*
X177352750Y-123731000I218750J0D01*
G01*
X177790250Y-123731000D01*
G75*
G02*
X178009000Y-123949750I0J-218750D01*
G01*
G37*
%TD*%
%TO.C,D19*%
G36*
G01*
X178009000Y-122425750D02*
X178009000Y-122938250D01*
G75*
G02*
X177790250Y-123157000I-218750J0D01*
G01*
X177352750Y-123157000D01*
G75*
G02*
X177134000Y-122938250I0J218750D01*
G01*
X177134000Y-122425750D01*
G75*
G02*
X177352750Y-122207000I218750J0D01*
G01*
X177790250Y-122207000D01*
G75*
G02*
X178009000Y-122425750I0J-218750D01*
G01*
G37*
G36*
G01*
X176434000Y-122425750D02*
X176434000Y-122938250D01*
G75*
G02*
X176215250Y-123157000I-218750J0D01*
G01*
X175777750Y-123157000D01*
G75*
G02*
X175559000Y-122938250I0J218750D01*
G01*
X175559000Y-122425750D01*
G75*
G02*
X175777750Y-122207000I218750J0D01*
G01*
X176215250Y-122207000D01*
G75*
G02*
X176434000Y-122425750I0J-218750D01*
G01*
G37*
%TD*%
%TO.C,D20*%
G36*
G01*
X176434000Y-120901750D02*
X176434000Y-121414250D01*
G75*
G02*
X176215250Y-121633000I-218750J0D01*
G01*
X175777750Y-121633000D01*
G75*
G02*
X175559000Y-121414250I0J218750D01*
G01*
X175559000Y-120901750D01*
G75*
G02*
X175777750Y-120683000I218750J0D01*
G01*
X176215250Y-120683000D01*
G75*
G02*
X176434000Y-120901750I0J-218750D01*
G01*
G37*
G36*
G01*
X178009000Y-120901750D02*
X178009000Y-121414250D01*
G75*
G02*
X177790250Y-121633000I-218750J0D01*
G01*
X177352750Y-121633000D01*
G75*
G02*
X177134000Y-121414250I0J218750D01*
G01*
X177134000Y-120901750D01*
G75*
G02*
X177352750Y-120683000I218750J0D01*
G01*
X177790250Y-120683000D01*
G75*
G02*
X178009000Y-120901750I0J-218750D01*
G01*
G37*
%TD*%
%TO.C,D21*%
G36*
G01*
X178009000Y-119377750D02*
X178009000Y-119890250D01*
G75*
G02*
X177790250Y-120109000I-218750J0D01*
G01*
X177352750Y-120109000D01*
G75*
G02*
X177134000Y-119890250I0J218750D01*
G01*
X177134000Y-119377750D01*
G75*
G02*
X177352750Y-119159000I218750J0D01*
G01*
X177790250Y-119159000D01*
G75*
G02*
X178009000Y-119377750I0J-218750D01*
G01*
G37*
G36*
G01*
X176434000Y-119377750D02*
X176434000Y-119890250D01*
G75*
G02*
X176215250Y-120109000I-218750J0D01*
G01*
X175777750Y-120109000D01*
G75*
G02*
X175559000Y-119890250I0J218750D01*
G01*
X175559000Y-119377750D01*
G75*
G02*
X175777750Y-119159000I218750J0D01*
G01*
X176215250Y-119159000D01*
G75*
G02*
X176434000Y-119377750I0J-218750D01*
G01*
G37*
%TD*%
%TO.C,D22*%
G36*
G01*
X176434000Y-117853750D02*
X176434000Y-118366250D01*
G75*
G02*
X176215250Y-118585000I-218750J0D01*
G01*
X175777750Y-118585000D01*
G75*
G02*
X175559000Y-118366250I0J218750D01*
G01*
X175559000Y-117853750D01*
G75*
G02*
X175777750Y-117635000I218750J0D01*
G01*
X176215250Y-117635000D01*
G75*
G02*
X176434000Y-117853750I0J-218750D01*
G01*
G37*
G36*
G01*
X178009000Y-117853750D02*
X178009000Y-118366250D01*
G75*
G02*
X177790250Y-118585000I-218750J0D01*
G01*
X177352750Y-118585000D01*
G75*
G02*
X177134000Y-118366250I0J218750D01*
G01*
X177134000Y-117853750D01*
G75*
G02*
X177352750Y-117635000I218750J0D01*
G01*
X177790250Y-117635000D01*
G75*
G02*
X178009000Y-117853750I0J-218750D01*
G01*
G37*
%TD*%
%TO.C,D23*%
G36*
G01*
X178009000Y-116329750D02*
X178009000Y-116842250D01*
G75*
G02*
X177790250Y-117061000I-218750J0D01*
G01*
X177352750Y-117061000D01*
G75*
G02*
X177134000Y-116842250I0J218750D01*
G01*
X177134000Y-116329750D01*
G75*
G02*
X177352750Y-116111000I218750J0D01*
G01*
X177790250Y-116111000D01*
G75*
G02*
X178009000Y-116329750I0J-218750D01*
G01*
G37*
G36*
G01*
X176434000Y-116329750D02*
X176434000Y-116842250D01*
G75*
G02*
X176215250Y-117061000I-218750J0D01*
G01*
X175777750Y-117061000D01*
G75*
G02*
X175559000Y-116842250I0J218750D01*
G01*
X175559000Y-116329750D01*
G75*
G02*
X175777750Y-116111000I218750J0D01*
G01*
X176215250Y-116111000D01*
G75*
G02*
X176434000Y-116329750I0J-218750D01*
G01*
G37*
%TD*%
%TO.C,D24*%
G36*
G01*
X176434000Y-113916750D02*
X176434000Y-114429250D01*
G75*
G02*
X176215250Y-114648000I-218750J0D01*
G01*
X175777750Y-114648000D01*
G75*
G02*
X175559000Y-114429250I0J218750D01*
G01*
X175559000Y-113916750D01*
G75*
G02*
X175777750Y-113698000I218750J0D01*
G01*
X176215250Y-113698000D01*
G75*
G02*
X176434000Y-113916750I0J-218750D01*
G01*
G37*
G36*
G01*
X178009000Y-113916750D02*
X178009000Y-114429250D01*
G75*
G02*
X177790250Y-114648000I-218750J0D01*
G01*
X177352750Y-114648000D01*
G75*
G02*
X177134000Y-114429250I0J218750D01*
G01*
X177134000Y-113916750D01*
G75*
G02*
X177352750Y-113698000I218750J0D01*
G01*
X177790250Y-113698000D01*
G75*
G02*
X178009000Y-113916750I0J-218750D01*
G01*
G37*
%TD*%
%TO.C,D25*%
G36*
G01*
X180930000Y-72895750D02*
X180930000Y-73408250D01*
G75*
G02*
X180711250Y-73627000I-218750J0D01*
G01*
X180273750Y-73627000D01*
G75*
G02*
X180055000Y-73408250I0J218750D01*
G01*
X180055000Y-72895750D01*
G75*
G02*
X180273750Y-72677000I218750J0D01*
G01*
X180711250Y-72677000D01*
G75*
G02*
X180930000Y-72895750I0J-218750D01*
G01*
G37*
G36*
G01*
X179355000Y-72895750D02*
X179355000Y-73408250D01*
G75*
G02*
X179136250Y-73627000I-218750J0D01*
G01*
X178698750Y-73627000D01*
G75*
G02*
X178480000Y-73408250I0J218750D01*
G01*
X178480000Y-72895750D01*
G75*
G02*
X178698750Y-72677000I218750J0D01*
G01*
X179136250Y-72677000D01*
G75*
G02*
X179355000Y-72895750I0J-218750D01*
G01*
G37*
%TD*%
%TO.C,D26*%
G36*
G01*
X179355000Y-74419750D02*
X179355000Y-74932250D01*
G75*
G02*
X179136250Y-75151000I-218750J0D01*
G01*
X178698750Y-75151000D01*
G75*
G02*
X178480000Y-74932250I0J218750D01*
G01*
X178480000Y-74419750D01*
G75*
G02*
X178698750Y-74201000I218750J0D01*
G01*
X179136250Y-74201000D01*
G75*
G02*
X179355000Y-74419750I0J-218750D01*
G01*
G37*
G36*
G01*
X180930000Y-74419750D02*
X180930000Y-74932250D01*
G75*
G02*
X180711250Y-75151000I-218750J0D01*
G01*
X180273750Y-75151000D01*
G75*
G02*
X180055000Y-74932250I0J218750D01*
G01*
X180055000Y-74419750D01*
G75*
G02*
X180273750Y-74201000I218750J0D01*
G01*
X180711250Y-74201000D01*
G75*
G02*
X180930000Y-74419750I0J-218750D01*
G01*
G37*
%TD*%
%TO.C,D27*%
G36*
G01*
X179355000Y-75943750D02*
X179355000Y-76456250D01*
G75*
G02*
X179136250Y-76675000I-218750J0D01*
G01*
X178698750Y-76675000D01*
G75*
G02*
X178480000Y-76456250I0J218750D01*
G01*
X178480000Y-75943750D01*
G75*
G02*
X178698750Y-75725000I218750J0D01*
G01*
X179136250Y-75725000D01*
G75*
G02*
X179355000Y-75943750I0J-218750D01*
G01*
G37*
G36*
G01*
X180930000Y-75943750D02*
X180930000Y-76456250D01*
G75*
G02*
X180711250Y-76675000I-218750J0D01*
G01*
X180273750Y-76675000D01*
G75*
G02*
X180055000Y-76456250I0J218750D01*
G01*
X180055000Y-75943750D01*
G75*
G02*
X180273750Y-75725000I218750J0D01*
G01*
X180711250Y-75725000D01*
G75*
G02*
X180930000Y-75943750I0J-218750D01*
G01*
G37*
%TD*%
%TO.C,D28*%
G36*
G01*
X180930000Y-77549949D02*
X180930000Y-78062449D01*
G75*
G02*
X180711250Y-78281199I-218750J0D01*
G01*
X180273750Y-78281199D01*
G75*
G02*
X180055000Y-78062449I0J218750D01*
G01*
X180055000Y-77549949D01*
G75*
G02*
X180273750Y-77331199I218750J0D01*
G01*
X180711250Y-77331199D01*
G75*
G02*
X180930000Y-77549949I0J-218750D01*
G01*
G37*
G36*
G01*
X179355000Y-77549949D02*
X179355000Y-78062449D01*
G75*
G02*
X179136250Y-78281199I-218750J0D01*
G01*
X178698750Y-78281199D01*
G75*
G02*
X178480000Y-78062449I0J218750D01*
G01*
X178480000Y-77549949D01*
G75*
G02*
X178698750Y-77331199I218750J0D01*
G01*
X179136250Y-77331199D01*
G75*
G02*
X179355000Y-77549949I0J-218750D01*
G01*
G37*
%TD*%
%TO.C,D29*%
G36*
G01*
X180930000Y-78991750D02*
X180930000Y-79504250D01*
G75*
G02*
X180711250Y-79723000I-218750J0D01*
G01*
X180273750Y-79723000D01*
G75*
G02*
X180055000Y-79504250I0J218750D01*
G01*
X180055000Y-78991750D01*
G75*
G02*
X180273750Y-78773000I218750J0D01*
G01*
X180711250Y-78773000D01*
G75*
G02*
X180930000Y-78991750I0J-218750D01*
G01*
G37*
G36*
G01*
X179355000Y-78991750D02*
X179355000Y-79504250D01*
G75*
G02*
X179136250Y-79723000I-218750J0D01*
G01*
X178698750Y-79723000D01*
G75*
G02*
X178480000Y-79504250I0J218750D01*
G01*
X178480000Y-78991750D01*
G75*
G02*
X178698750Y-78773000I218750J0D01*
G01*
X179136250Y-78773000D01*
G75*
G02*
X179355000Y-78991750I0J-218750D01*
G01*
G37*
%TD*%
%TO.C,D30*%
G36*
G01*
X179355000Y-80515750D02*
X179355000Y-81028250D01*
G75*
G02*
X179136250Y-81247000I-218750J0D01*
G01*
X178698750Y-81247000D01*
G75*
G02*
X178480000Y-81028250I0J218750D01*
G01*
X178480000Y-80515750D01*
G75*
G02*
X178698750Y-80297000I218750J0D01*
G01*
X179136250Y-80297000D01*
G75*
G02*
X179355000Y-80515750I0J-218750D01*
G01*
G37*
G36*
G01*
X180930000Y-80515750D02*
X180930000Y-81028250D01*
G75*
G02*
X180711250Y-81247000I-218750J0D01*
G01*
X180273750Y-81247000D01*
G75*
G02*
X180055000Y-81028250I0J218750D01*
G01*
X180055000Y-80515750D01*
G75*
G02*
X180273750Y-80297000I218750J0D01*
G01*
X180711250Y-80297000D01*
G75*
G02*
X180930000Y-80515750I0J-218750D01*
G01*
G37*
%TD*%
%TO.C,D31*%
G36*
G01*
X180930000Y-82039750D02*
X180930000Y-82552250D01*
G75*
G02*
X180711250Y-82771000I-218750J0D01*
G01*
X180273750Y-82771000D01*
G75*
G02*
X180055000Y-82552250I0J218750D01*
G01*
X180055000Y-82039750D01*
G75*
G02*
X180273750Y-81821000I218750J0D01*
G01*
X180711250Y-81821000D01*
G75*
G02*
X180930000Y-82039750I0J-218750D01*
G01*
G37*
G36*
G01*
X179355000Y-82039750D02*
X179355000Y-82552250D01*
G75*
G02*
X179136250Y-82771000I-218750J0D01*
G01*
X178698750Y-82771000D01*
G75*
G02*
X178480000Y-82552250I0J218750D01*
G01*
X178480000Y-82039750D01*
G75*
G02*
X178698750Y-81821000I218750J0D01*
G01*
X179136250Y-81821000D01*
G75*
G02*
X179355000Y-82039750I0J-218750D01*
G01*
G37*
%TD*%
%TO.C,D32*%
G36*
G01*
X179355000Y-83563750D02*
X179355000Y-84076250D01*
G75*
G02*
X179136250Y-84295000I-218750J0D01*
G01*
X178698750Y-84295000D01*
G75*
G02*
X178480000Y-84076250I0J218750D01*
G01*
X178480000Y-83563750D01*
G75*
G02*
X178698750Y-83345000I218750J0D01*
G01*
X179136250Y-83345000D01*
G75*
G02*
X179355000Y-83563750I0J-218750D01*
G01*
G37*
G36*
G01*
X180930000Y-83563750D02*
X180930000Y-84076250D01*
G75*
G02*
X180711250Y-84295000I-218750J0D01*
G01*
X180273750Y-84295000D01*
G75*
G02*
X180055000Y-84076250I0J218750D01*
G01*
X180055000Y-83563750D01*
G75*
G02*
X180273750Y-83345000I218750J0D01*
G01*
X180711250Y-83345000D01*
G75*
G02*
X180930000Y-83563750I0J-218750D01*
G01*
G37*
%TD*%
%TO.C,D33*%
G36*
G01*
X180930000Y-85849750D02*
X180930000Y-86362250D01*
G75*
G02*
X180711250Y-86581000I-218750J0D01*
G01*
X180273750Y-86581000D01*
G75*
G02*
X180055000Y-86362250I0J218750D01*
G01*
X180055000Y-85849750D01*
G75*
G02*
X180273750Y-85631000I218750J0D01*
G01*
X180711250Y-85631000D01*
G75*
G02*
X180930000Y-85849750I0J-218750D01*
G01*
G37*
G36*
G01*
X179355000Y-85849750D02*
X179355000Y-86362250D01*
G75*
G02*
X179136250Y-86581000I-218750J0D01*
G01*
X178698750Y-86581000D01*
G75*
G02*
X178480000Y-86362250I0J218750D01*
G01*
X178480000Y-85849750D01*
G75*
G02*
X178698750Y-85631000I218750J0D01*
G01*
X179136250Y-85631000D01*
G75*
G02*
X179355000Y-85849750I0J-218750D01*
G01*
G37*
%TD*%
%TO.C,D34*%
G36*
G01*
X179355000Y-87373750D02*
X179355000Y-87886250D01*
G75*
G02*
X179136250Y-88105000I-218750J0D01*
G01*
X178698750Y-88105000D01*
G75*
G02*
X178480000Y-87886250I0J218750D01*
G01*
X178480000Y-87373750D01*
G75*
G02*
X178698750Y-87155000I218750J0D01*
G01*
X179136250Y-87155000D01*
G75*
G02*
X179355000Y-87373750I0J-218750D01*
G01*
G37*
G36*
G01*
X180930000Y-87373750D02*
X180930000Y-87886250D01*
G75*
G02*
X180711250Y-88105000I-218750J0D01*
G01*
X180273750Y-88105000D01*
G75*
G02*
X180055000Y-87886250I0J218750D01*
G01*
X180055000Y-87373750D01*
G75*
G02*
X180273750Y-87155000I218750J0D01*
G01*
X180711250Y-87155000D01*
G75*
G02*
X180930000Y-87373750I0J-218750D01*
G01*
G37*
%TD*%
%TO.C,D35*%
G36*
G01*
X179355000Y-88897750D02*
X179355000Y-89410250D01*
G75*
G02*
X179136250Y-89629000I-218750J0D01*
G01*
X178698750Y-89629000D01*
G75*
G02*
X178480000Y-89410250I0J218750D01*
G01*
X178480000Y-88897750D01*
G75*
G02*
X178698750Y-88679000I218750J0D01*
G01*
X179136250Y-88679000D01*
G75*
G02*
X179355000Y-88897750I0J-218750D01*
G01*
G37*
G36*
G01*
X180930000Y-88897750D02*
X180930000Y-89410250D01*
G75*
G02*
X180711250Y-89629000I-218750J0D01*
G01*
X180273750Y-89629000D01*
G75*
G02*
X180055000Y-89410250I0J218750D01*
G01*
X180055000Y-88897750D01*
G75*
G02*
X180273750Y-88679000I218750J0D01*
G01*
X180711250Y-88679000D01*
G75*
G02*
X180930000Y-88897750I0J-218750D01*
G01*
G37*
%TD*%
%TO.C,D36*%
G36*
G01*
X180930000Y-90421750D02*
X180930000Y-90934250D01*
G75*
G02*
X180711250Y-91153000I-218750J0D01*
G01*
X180273750Y-91153000D01*
G75*
G02*
X180055000Y-90934250I0J218750D01*
G01*
X180055000Y-90421750D01*
G75*
G02*
X180273750Y-90203000I218750J0D01*
G01*
X180711250Y-90203000D01*
G75*
G02*
X180930000Y-90421750I0J-218750D01*
G01*
G37*
G36*
G01*
X179355000Y-90421750D02*
X179355000Y-90934250D01*
G75*
G02*
X179136250Y-91153000I-218750J0D01*
G01*
X178698750Y-91153000D01*
G75*
G02*
X178480000Y-90934250I0J218750D01*
G01*
X178480000Y-90421750D01*
G75*
G02*
X178698750Y-90203000I218750J0D01*
G01*
X179136250Y-90203000D01*
G75*
G02*
X179355000Y-90421750I0J-218750D01*
G01*
G37*
%TD*%
%TO.C,D37*%
G36*
G01*
X179355000Y-91945750D02*
X179355000Y-92458250D01*
G75*
G02*
X179136250Y-92677000I-218750J0D01*
G01*
X178698750Y-92677000D01*
G75*
G02*
X178480000Y-92458250I0J218750D01*
G01*
X178480000Y-91945750D01*
G75*
G02*
X178698750Y-91727000I218750J0D01*
G01*
X179136250Y-91727000D01*
G75*
G02*
X179355000Y-91945750I0J-218750D01*
G01*
G37*
G36*
G01*
X180930000Y-91945750D02*
X180930000Y-92458250D01*
G75*
G02*
X180711250Y-92677000I-218750J0D01*
G01*
X180273750Y-92677000D01*
G75*
G02*
X180055000Y-92458250I0J218750D01*
G01*
X180055000Y-91945750D01*
G75*
G02*
X180273750Y-91727000I218750J0D01*
G01*
X180711250Y-91727000D01*
G75*
G02*
X180930000Y-91945750I0J-218750D01*
G01*
G37*
%TD*%
%TO.C,D38*%
G36*
G01*
X179355000Y-93469750D02*
X179355000Y-93982250D01*
G75*
G02*
X179136250Y-94201000I-218750J0D01*
G01*
X178698750Y-94201000D01*
G75*
G02*
X178480000Y-93982250I0J218750D01*
G01*
X178480000Y-93469750D01*
G75*
G02*
X178698750Y-93251000I218750J0D01*
G01*
X179136250Y-93251000D01*
G75*
G02*
X179355000Y-93469750I0J-218750D01*
G01*
G37*
G36*
G01*
X180930000Y-93469750D02*
X180930000Y-93982250D01*
G75*
G02*
X180711250Y-94201000I-218750J0D01*
G01*
X180273750Y-94201000D01*
G75*
G02*
X180055000Y-93982250I0J218750D01*
G01*
X180055000Y-93469750D01*
G75*
G02*
X180273750Y-93251000I218750J0D01*
G01*
X180711250Y-93251000D01*
G75*
G02*
X180930000Y-93469750I0J-218750D01*
G01*
G37*
%TD*%
%TO.C,D39*%
G36*
G01*
X180930000Y-94993750D02*
X180930000Y-95506250D01*
G75*
G02*
X180711250Y-95725000I-218750J0D01*
G01*
X180273750Y-95725000D01*
G75*
G02*
X180055000Y-95506250I0J218750D01*
G01*
X180055000Y-94993750D01*
G75*
G02*
X180273750Y-94775000I218750J0D01*
G01*
X180711250Y-94775000D01*
G75*
G02*
X180930000Y-94993750I0J-218750D01*
G01*
G37*
G36*
G01*
X179355000Y-94993750D02*
X179355000Y-95506250D01*
G75*
G02*
X179136250Y-95725000I-218750J0D01*
G01*
X178698750Y-95725000D01*
G75*
G02*
X178480000Y-95506250I0J218750D01*
G01*
X178480000Y-94993750D01*
G75*
G02*
X178698750Y-94775000I218750J0D01*
G01*
X179136250Y-94775000D01*
G75*
G02*
X179355000Y-94993750I0J-218750D01*
G01*
G37*
%TD*%
%TO.C,D40*%
G36*
G01*
X180930000Y-96517750D02*
X180930000Y-97030250D01*
G75*
G02*
X180711250Y-97249000I-218750J0D01*
G01*
X180273750Y-97249000D01*
G75*
G02*
X180055000Y-97030250I0J218750D01*
G01*
X180055000Y-96517750D01*
G75*
G02*
X180273750Y-96299000I218750J0D01*
G01*
X180711250Y-96299000D01*
G75*
G02*
X180930000Y-96517750I0J-218750D01*
G01*
G37*
G36*
G01*
X179355000Y-96517750D02*
X179355000Y-97030250D01*
G75*
G02*
X179136250Y-97249000I-218750J0D01*
G01*
X178698750Y-97249000D01*
G75*
G02*
X178480000Y-97030250I0J218750D01*
G01*
X178480000Y-96517750D01*
G75*
G02*
X178698750Y-96299000I218750J0D01*
G01*
X179136250Y-96299000D01*
G75*
G02*
X179355000Y-96517750I0J-218750D01*
G01*
G37*
%TD*%
%TO.C,D41*%
G36*
G01*
X91104000Y-117604250D02*
X91104000Y-117091750D01*
G75*
G02*
X91322750Y-116873000I218750J0D01*
G01*
X91760250Y-116873000D01*
G75*
G02*
X91979000Y-117091750I0J-218750D01*
G01*
X91979000Y-117604250D01*
G75*
G02*
X91760250Y-117823000I-218750J0D01*
G01*
X91322750Y-117823000D01*
G75*
G02*
X91104000Y-117604250I0J218750D01*
G01*
G37*
G36*
G01*
X92679000Y-117604250D02*
X92679000Y-117091750D01*
G75*
G02*
X92897750Y-116873000I218750J0D01*
G01*
X93335250Y-116873000D01*
G75*
G02*
X93554000Y-117091750I0J-218750D01*
G01*
X93554000Y-117604250D01*
G75*
G02*
X93335250Y-117823000I-218750J0D01*
G01*
X92897750Y-117823000D01*
G75*
G02*
X92679000Y-117604250I0J218750D01*
G01*
G37*
%TD*%
%TO.C,D42*%
G36*
G01*
X92679000Y-116080250D02*
X92679000Y-115567750D01*
G75*
G02*
X92897750Y-115349000I218750J0D01*
G01*
X93335250Y-115349000D01*
G75*
G02*
X93554000Y-115567750I0J-218750D01*
G01*
X93554000Y-116080250D01*
G75*
G02*
X93335250Y-116299000I-218750J0D01*
G01*
X92897750Y-116299000D01*
G75*
G02*
X92679000Y-116080250I0J218750D01*
G01*
G37*
G36*
G01*
X91104000Y-116080250D02*
X91104000Y-115567750D01*
G75*
G02*
X91322750Y-115349000I218750J0D01*
G01*
X91760250Y-115349000D01*
G75*
G02*
X91979000Y-115567750I0J-218750D01*
G01*
X91979000Y-116080250D01*
G75*
G02*
X91760250Y-116299000I-218750J0D01*
G01*
X91322750Y-116299000D01*
G75*
G02*
X91104000Y-116080250I0J218750D01*
G01*
G37*
%TD*%
%TO.C,D43*%
G36*
G01*
X91104000Y-114556250D02*
X91104000Y-114043750D01*
G75*
G02*
X91322750Y-113825000I218750J0D01*
G01*
X91760250Y-113825000D01*
G75*
G02*
X91979000Y-114043750I0J-218750D01*
G01*
X91979000Y-114556250D01*
G75*
G02*
X91760250Y-114775000I-218750J0D01*
G01*
X91322750Y-114775000D01*
G75*
G02*
X91104000Y-114556250I0J218750D01*
G01*
G37*
G36*
G01*
X92679000Y-114556250D02*
X92679000Y-114043750D01*
G75*
G02*
X92897750Y-113825000I218750J0D01*
G01*
X93335250Y-113825000D01*
G75*
G02*
X93554000Y-114043750I0J-218750D01*
G01*
X93554000Y-114556250D01*
G75*
G02*
X93335250Y-114775000I-218750J0D01*
G01*
X92897750Y-114775000D01*
G75*
G02*
X92679000Y-114556250I0J218750D01*
G01*
G37*
%TD*%
%TO.C,D44*%
G36*
G01*
X91104000Y-113032250D02*
X91104000Y-112519750D01*
G75*
G02*
X91322750Y-112301000I218750J0D01*
G01*
X91760250Y-112301000D01*
G75*
G02*
X91979000Y-112519750I0J-218750D01*
G01*
X91979000Y-113032250D01*
G75*
G02*
X91760250Y-113251000I-218750J0D01*
G01*
X91322750Y-113251000D01*
G75*
G02*
X91104000Y-113032250I0J218750D01*
G01*
G37*
G36*
G01*
X92679000Y-113032250D02*
X92679000Y-112519750D01*
G75*
G02*
X92897750Y-112301000I218750J0D01*
G01*
X93335250Y-112301000D01*
G75*
G02*
X93554000Y-112519750I0J-218750D01*
G01*
X93554000Y-113032250D01*
G75*
G02*
X93335250Y-113251000I-218750J0D01*
G01*
X92897750Y-113251000D01*
G75*
G02*
X92679000Y-113032250I0J218750D01*
G01*
G37*
%TD*%
%TO.C,D45*%
G36*
G01*
X92679000Y-111508250D02*
X92679000Y-110995750D01*
G75*
G02*
X92897750Y-110777000I218750J0D01*
G01*
X93335250Y-110777000D01*
G75*
G02*
X93554000Y-110995750I0J-218750D01*
G01*
X93554000Y-111508250D01*
G75*
G02*
X93335250Y-111727000I-218750J0D01*
G01*
X92897750Y-111727000D01*
G75*
G02*
X92679000Y-111508250I0J218750D01*
G01*
G37*
G36*
G01*
X91104000Y-111508250D02*
X91104000Y-110995750D01*
G75*
G02*
X91322750Y-110777000I218750J0D01*
G01*
X91760250Y-110777000D01*
G75*
G02*
X91979000Y-110995750I0J-218750D01*
G01*
X91979000Y-111508250D01*
G75*
G02*
X91760250Y-111727000I-218750J0D01*
G01*
X91322750Y-111727000D01*
G75*
G02*
X91104000Y-111508250I0J218750D01*
G01*
G37*
%TD*%
%TO.C,D46*%
G36*
G01*
X91104000Y-109984250D02*
X91104000Y-109471750D01*
G75*
G02*
X91322750Y-109253000I218750J0D01*
G01*
X91760250Y-109253000D01*
G75*
G02*
X91979000Y-109471750I0J-218750D01*
G01*
X91979000Y-109984250D01*
G75*
G02*
X91760250Y-110203000I-218750J0D01*
G01*
X91322750Y-110203000D01*
G75*
G02*
X91104000Y-109984250I0J218750D01*
G01*
G37*
G36*
G01*
X92679000Y-109984250D02*
X92679000Y-109471750D01*
G75*
G02*
X92897750Y-109253000I218750J0D01*
G01*
X93335250Y-109253000D01*
G75*
G02*
X93554000Y-109471750I0J-218750D01*
G01*
X93554000Y-109984250D01*
G75*
G02*
X93335250Y-110203000I-218750J0D01*
G01*
X92897750Y-110203000D01*
G75*
G02*
X92679000Y-109984250I0J218750D01*
G01*
G37*
%TD*%
%TO.C,D47*%
G36*
G01*
X91104000Y-108460250D02*
X91104000Y-107947750D01*
G75*
G02*
X91322750Y-107729000I218750J0D01*
G01*
X91760250Y-107729000D01*
G75*
G02*
X91979000Y-107947750I0J-218750D01*
G01*
X91979000Y-108460250D01*
G75*
G02*
X91760250Y-108679000I-218750J0D01*
G01*
X91322750Y-108679000D01*
G75*
G02*
X91104000Y-108460250I0J218750D01*
G01*
G37*
G36*
G01*
X92679000Y-108460250D02*
X92679000Y-107947750D01*
G75*
G02*
X92897750Y-107729000I218750J0D01*
G01*
X93335250Y-107729000D01*
G75*
G02*
X93554000Y-107947750I0J-218750D01*
G01*
X93554000Y-108460250D01*
G75*
G02*
X93335250Y-108679000I-218750J0D01*
G01*
X92897750Y-108679000D01*
G75*
G02*
X92679000Y-108460250I0J218750D01*
G01*
G37*
%TD*%
%TO.C,D48*%
G36*
G01*
X92679000Y-106936250D02*
X92679000Y-106423750D01*
G75*
G02*
X92897750Y-106205000I218750J0D01*
G01*
X93335250Y-106205000D01*
G75*
G02*
X93554000Y-106423750I0J-218750D01*
G01*
X93554000Y-106936250D01*
G75*
G02*
X93335250Y-107155000I-218750J0D01*
G01*
X92897750Y-107155000D01*
G75*
G02*
X92679000Y-106936250I0J218750D01*
G01*
G37*
G36*
G01*
X91104000Y-106936250D02*
X91104000Y-106423750D01*
G75*
G02*
X91322750Y-106205000I218750J0D01*
G01*
X91760250Y-106205000D01*
G75*
G02*
X91979000Y-106423750I0J-218750D01*
G01*
X91979000Y-106936250D01*
G75*
G02*
X91760250Y-107155000I-218750J0D01*
G01*
X91322750Y-107155000D01*
G75*
G02*
X91104000Y-106936250I0J218750D01*
G01*
G37*
%TD*%
%TO.C,D49*%
G36*
G01*
X91104000Y-105412250D02*
X91104000Y-104899750D01*
G75*
G02*
X91322750Y-104681000I218750J0D01*
G01*
X91760250Y-104681000D01*
G75*
G02*
X91979000Y-104899750I0J-218750D01*
G01*
X91979000Y-105412250D01*
G75*
G02*
X91760250Y-105631000I-218750J0D01*
G01*
X91322750Y-105631000D01*
G75*
G02*
X91104000Y-105412250I0J218750D01*
G01*
G37*
G36*
G01*
X92679000Y-105412250D02*
X92679000Y-104899750D01*
G75*
G02*
X92897750Y-104681000I218750J0D01*
G01*
X93335250Y-104681000D01*
G75*
G02*
X93554000Y-104899750I0J-218750D01*
G01*
X93554000Y-105412250D01*
G75*
G02*
X93335250Y-105631000I-218750J0D01*
G01*
X92897750Y-105631000D01*
G75*
G02*
X92679000Y-105412250I0J218750D01*
G01*
G37*
%TD*%
%TO.C,D50*%
G36*
G01*
X92679000Y-103888250D02*
X92679000Y-103375750D01*
G75*
G02*
X92897750Y-103157000I218750J0D01*
G01*
X93335250Y-103157000D01*
G75*
G02*
X93554000Y-103375750I0J-218750D01*
G01*
X93554000Y-103888250D01*
G75*
G02*
X93335250Y-104107000I-218750J0D01*
G01*
X92897750Y-104107000D01*
G75*
G02*
X92679000Y-103888250I0J218750D01*
G01*
G37*
G36*
G01*
X91104000Y-103888250D02*
X91104000Y-103375750D01*
G75*
G02*
X91322750Y-103157000I218750J0D01*
G01*
X91760250Y-103157000D01*
G75*
G02*
X91979000Y-103375750I0J-218750D01*
G01*
X91979000Y-103888250D01*
G75*
G02*
X91760250Y-104107000I-218750J0D01*
G01*
X91322750Y-104107000D01*
G75*
G02*
X91104000Y-103888250I0J218750D01*
G01*
G37*
%TD*%
%TO.C,D51*%
G36*
G01*
X91104000Y-102364250D02*
X91104000Y-101851750D01*
G75*
G02*
X91322750Y-101633000I218750J0D01*
G01*
X91760250Y-101633000D01*
G75*
G02*
X91979000Y-101851750I0J-218750D01*
G01*
X91979000Y-102364250D01*
G75*
G02*
X91760250Y-102583000I-218750J0D01*
G01*
X91322750Y-102583000D01*
G75*
G02*
X91104000Y-102364250I0J218750D01*
G01*
G37*
G36*
G01*
X92679000Y-102364250D02*
X92679000Y-101851750D01*
G75*
G02*
X92897750Y-101633000I218750J0D01*
G01*
X93335250Y-101633000D01*
G75*
G02*
X93554000Y-101851750I0J-218750D01*
G01*
X93554000Y-102364250D01*
G75*
G02*
X93335250Y-102583000I-218750J0D01*
G01*
X92897750Y-102583000D01*
G75*
G02*
X92679000Y-102364250I0J218750D01*
G01*
G37*
%TD*%
%TO.C,D52*%
G36*
G01*
X92679000Y-100840250D02*
X92679000Y-100327750D01*
G75*
G02*
X92897750Y-100109000I218750J0D01*
G01*
X93335250Y-100109000D01*
G75*
G02*
X93554000Y-100327750I0J-218750D01*
G01*
X93554000Y-100840250D01*
G75*
G02*
X93335250Y-101059000I-218750J0D01*
G01*
X92897750Y-101059000D01*
G75*
G02*
X92679000Y-100840250I0J218750D01*
G01*
G37*
G36*
G01*
X91104000Y-100840250D02*
X91104000Y-100327750D01*
G75*
G02*
X91322750Y-100109000I218750J0D01*
G01*
X91760250Y-100109000D01*
G75*
G02*
X91979000Y-100327750I0J-218750D01*
G01*
X91979000Y-100840250D01*
G75*
G02*
X91760250Y-101059000I-218750J0D01*
G01*
X91322750Y-101059000D01*
G75*
G02*
X91104000Y-100840250I0J218750D01*
G01*
G37*
%TD*%
%TO.C,D53*%
G36*
G01*
X91104000Y-150116250D02*
X91104000Y-149603750D01*
G75*
G02*
X91322750Y-149385000I218750J0D01*
G01*
X91760250Y-149385000D01*
G75*
G02*
X91979000Y-149603750I0J-218750D01*
G01*
X91979000Y-150116250D01*
G75*
G02*
X91760250Y-150335000I-218750J0D01*
G01*
X91322750Y-150335000D01*
G75*
G02*
X91104000Y-150116250I0J218750D01*
G01*
G37*
G36*
G01*
X92679000Y-150116250D02*
X92679000Y-149603750D01*
G75*
G02*
X92897750Y-149385000I218750J0D01*
G01*
X93335250Y-149385000D01*
G75*
G02*
X93554000Y-149603750I0J-218750D01*
G01*
X93554000Y-150116250D01*
G75*
G02*
X93335250Y-150335000I-218750J0D01*
G01*
X92897750Y-150335000D01*
G75*
G02*
X92679000Y-150116250I0J218750D01*
G01*
G37*
%TD*%
%TO.C,D54*%
G36*
G01*
X92679000Y-148592250D02*
X92679000Y-148079750D01*
G75*
G02*
X92897750Y-147861000I218750J0D01*
G01*
X93335250Y-147861000D01*
G75*
G02*
X93554000Y-148079750I0J-218750D01*
G01*
X93554000Y-148592250D01*
G75*
G02*
X93335250Y-148811000I-218750J0D01*
G01*
X92897750Y-148811000D01*
G75*
G02*
X92679000Y-148592250I0J218750D01*
G01*
G37*
G36*
G01*
X91104000Y-148592250D02*
X91104000Y-148079750D01*
G75*
G02*
X91322750Y-147861000I218750J0D01*
G01*
X91760250Y-147861000D01*
G75*
G02*
X91979000Y-148079750I0J-218750D01*
G01*
X91979000Y-148592250D01*
G75*
G02*
X91760250Y-148811000I-218750J0D01*
G01*
X91322750Y-148811000D01*
G75*
G02*
X91104000Y-148592250I0J218750D01*
G01*
G37*
%TD*%
%TO.C,D55*%
G36*
G01*
X92679000Y-147068250D02*
X92679000Y-146555750D01*
G75*
G02*
X92897750Y-146337000I218750J0D01*
G01*
X93335250Y-146337000D01*
G75*
G02*
X93554000Y-146555750I0J-218750D01*
G01*
X93554000Y-147068250D01*
G75*
G02*
X93335250Y-147287000I-218750J0D01*
G01*
X92897750Y-147287000D01*
G75*
G02*
X92679000Y-147068250I0J218750D01*
G01*
G37*
G36*
G01*
X91104000Y-147068250D02*
X91104000Y-146555750D01*
G75*
G02*
X91322750Y-146337000I218750J0D01*
G01*
X91760250Y-146337000D01*
G75*
G02*
X91979000Y-146555750I0J-218750D01*
G01*
X91979000Y-147068250D01*
G75*
G02*
X91760250Y-147287000I-218750J0D01*
G01*
X91322750Y-147287000D01*
G75*
G02*
X91104000Y-147068250I0J218750D01*
G01*
G37*
%TD*%
%TO.C,D56*%
G36*
G01*
X91104000Y-145544250D02*
X91104000Y-145031750D01*
G75*
G02*
X91322750Y-144813000I218750J0D01*
G01*
X91760250Y-144813000D01*
G75*
G02*
X91979000Y-145031750I0J-218750D01*
G01*
X91979000Y-145544250D01*
G75*
G02*
X91760250Y-145763000I-218750J0D01*
G01*
X91322750Y-145763000D01*
G75*
G02*
X91104000Y-145544250I0J218750D01*
G01*
G37*
G36*
G01*
X92679000Y-145544250D02*
X92679000Y-145031750D01*
G75*
G02*
X92897750Y-144813000I218750J0D01*
G01*
X93335250Y-144813000D01*
G75*
G02*
X93554000Y-145031750I0J-218750D01*
G01*
X93554000Y-145544250D01*
G75*
G02*
X93335250Y-145763000I-218750J0D01*
G01*
X92897750Y-145763000D01*
G75*
G02*
X92679000Y-145544250I0J218750D01*
G01*
G37*
%TD*%
%TO.C,D57*%
G36*
G01*
X92679000Y-144020250D02*
X92679000Y-143507750D01*
G75*
G02*
X92897750Y-143289000I218750J0D01*
G01*
X93335250Y-143289000D01*
G75*
G02*
X93554000Y-143507750I0J-218750D01*
G01*
X93554000Y-144020250D01*
G75*
G02*
X93335250Y-144239000I-218750J0D01*
G01*
X92897750Y-144239000D01*
G75*
G02*
X92679000Y-144020250I0J218750D01*
G01*
G37*
G36*
G01*
X91104000Y-144020250D02*
X91104000Y-143507750D01*
G75*
G02*
X91322750Y-143289000I218750J0D01*
G01*
X91760250Y-143289000D01*
G75*
G02*
X91979000Y-143507750I0J-218750D01*
G01*
X91979000Y-144020250D01*
G75*
G02*
X91760250Y-144239000I-218750J0D01*
G01*
X91322750Y-144239000D01*
G75*
G02*
X91104000Y-144020250I0J218750D01*
G01*
G37*
%TD*%
%TO.C,D58*%
G36*
G01*
X91104000Y-142496250D02*
X91104000Y-141983750D01*
G75*
G02*
X91322750Y-141765000I218750J0D01*
G01*
X91760250Y-141765000D01*
G75*
G02*
X91979000Y-141983750I0J-218750D01*
G01*
X91979000Y-142496250D01*
G75*
G02*
X91760250Y-142715000I-218750J0D01*
G01*
X91322750Y-142715000D01*
G75*
G02*
X91104000Y-142496250I0J218750D01*
G01*
G37*
G36*
G01*
X92679000Y-142496250D02*
X92679000Y-141983750D01*
G75*
G02*
X92897750Y-141765000I218750J0D01*
G01*
X93335250Y-141765000D01*
G75*
G02*
X93554000Y-141983750I0J-218750D01*
G01*
X93554000Y-142496250D01*
G75*
G02*
X93335250Y-142715000I-218750J0D01*
G01*
X92897750Y-142715000D01*
G75*
G02*
X92679000Y-142496250I0J218750D01*
G01*
G37*
%TD*%
%TO.C,D59*%
G36*
G01*
X92679000Y-140972250D02*
X92679000Y-140459750D01*
G75*
G02*
X92897750Y-140241000I218750J0D01*
G01*
X93335250Y-140241000D01*
G75*
G02*
X93554000Y-140459750I0J-218750D01*
G01*
X93554000Y-140972250D01*
G75*
G02*
X93335250Y-141191000I-218750J0D01*
G01*
X92897750Y-141191000D01*
G75*
G02*
X92679000Y-140972250I0J218750D01*
G01*
G37*
G36*
G01*
X91104000Y-140972250D02*
X91104000Y-140459750D01*
G75*
G02*
X91322750Y-140241000I218750J0D01*
G01*
X91760250Y-140241000D01*
G75*
G02*
X91979000Y-140459750I0J-218750D01*
G01*
X91979000Y-140972250D01*
G75*
G02*
X91760250Y-141191000I-218750J0D01*
G01*
X91322750Y-141191000D01*
G75*
G02*
X91104000Y-140972250I0J218750D01*
G01*
G37*
%TD*%
%TO.C,D60*%
G36*
G01*
X91104000Y-139448250D02*
X91104000Y-138935750D01*
G75*
G02*
X91322750Y-138717000I218750J0D01*
G01*
X91760250Y-138717000D01*
G75*
G02*
X91979000Y-138935750I0J-218750D01*
G01*
X91979000Y-139448250D01*
G75*
G02*
X91760250Y-139667000I-218750J0D01*
G01*
X91322750Y-139667000D01*
G75*
G02*
X91104000Y-139448250I0J218750D01*
G01*
G37*
G36*
G01*
X92679000Y-139448250D02*
X92679000Y-138935750D01*
G75*
G02*
X92897750Y-138717000I218750J0D01*
G01*
X93335250Y-138717000D01*
G75*
G02*
X93554000Y-138935750I0J-218750D01*
G01*
X93554000Y-139448250D01*
G75*
G02*
X93335250Y-139667000I-218750J0D01*
G01*
X92897750Y-139667000D01*
G75*
G02*
X92679000Y-139448250I0J218750D01*
G01*
G37*
%TD*%
D14*
%TO.C,J1*%
X112365000Y-61555000D03*
X113015000Y-61555000D03*
X113665000Y-61555000D03*
X114315000Y-61555000D03*
X114965000Y-61555000D03*
D15*
X111665000Y-60755000D03*
X115665000Y-60755000D03*
D16*
X110460000Y-60855000D03*
X116870000Y-60855000D03*
D17*
X109615000Y-58455000D03*
D18*
X117715000Y-58455000D03*
%TD*%
D12*
%TO.C,J3*%
X101219000Y-153289000D03*
D13*
X103759000Y-153289000D03*
X106299000Y-153289000D03*
X108839000Y-153289000D03*
X111379000Y-153289000D03*
X113919000Y-153289000D03*
%TD*%
D12*
%TO.C,J4*%
X164211000Y-66929000D03*
D13*
X164211000Y-69469000D03*
X164211000Y-72009000D03*
X164211000Y-74549000D03*
X164211000Y-77089000D03*
X164211000Y-79629000D03*
X164211000Y-82169000D03*
X164211000Y-84709000D03*
X164211000Y-87249000D03*
X164211000Y-89789000D03*
X164211000Y-92329000D03*
X164211000Y-94869000D03*
X164211000Y-97409000D03*
X164211000Y-99949000D03*
X164211000Y-102489000D03*
X164211000Y-105029000D03*
%TD*%
D12*
%TO.C,J5*%
X166751000Y-66929000D03*
D13*
X166751000Y-69469000D03*
X166751000Y-72009000D03*
X166751000Y-74549000D03*
X166751000Y-77089000D03*
X166751000Y-79629000D03*
X166751000Y-82169000D03*
X166751000Y-84709000D03*
X166751000Y-87249000D03*
X166751000Y-89789000D03*
X166751000Y-92329000D03*
X166751000Y-94869000D03*
X166751000Y-97409000D03*
X166751000Y-99949000D03*
X166751000Y-102489000D03*
X166751000Y-105029000D03*
%TD*%
%TO.C,J6*%
X169291000Y-105029000D03*
X169291000Y-102489000D03*
X169291000Y-99949000D03*
X169291000Y-97409000D03*
X169291000Y-94869000D03*
X169291000Y-92329000D03*
X169291000Y-89789000D03*
X169291000Y-87249000D03*
X169291000Y-84709000D03*
X169291000Y-82169000D03*
X169291000Y-79629000D03*
X169291000Y-77089000D03*
X169291000Y-74549000D03*
X169291000Y-72009000D03*
X169291000Y-69469000D03*
D12*
X169291000Y-66929000D03*
%TD*%
%TO.C,J7*%
X96012000Y-90424000D03*
D13*
X98552000Y-90424000D03*
X96012000Y-87884000D03*
X98552000Y-87884000D03*
X96012000Y-85344000D03*
X98552000Y-85344000D03*
X96012000Y-82804000D03*
X98552000Y-82804000D03*
X96012000Y-80264000D03*
X98552000Y-80264000D03*
X96012000Y-77724000D03*
X98552000Y-77724000D03*
X96012000Y-75184000D03*
X98552000Y-75184000D03*
X96012000Y-72644000D03*
X98552000Y-72644000D03*
X96012000Y-70104000D03*
X98552000Y-70104000D03*
X96012000Y-67564000D03*
X98552000Y-67564000D03*
X96012000Y-65024000D03*
X98552000Y-65024000D03*
X96012000Y-62484000D03*
X98552000Y-62484000D03*
X96012000Y-59944000D03*
X98552000Y-59944000D03*
%TD*%
D12*
%TO.C,J8*%
X101092000Y-90424000D03*
D13*
X101092000Y-87884000D03*
X101092000Y-85344000D03*
X101092000Y-82804000D03*
X101092000Y-80264000D03*
X101092000Y-77724000D03*
X101092000Y-75184000D03*
X101092000Y-72644000D03*
X101092000Y-70104000D03*
X101092000Y-67564000D03*
X101092000Y-65024000D03*
X101092000Y-62484000D03*
X101092000Y-59944000D03*
%TD*%
D12*
%TO.C,J9*%
X92710000Y-131953000D03*
D13*
X92710000Y-129413000D03*
%TD*%
D19*
%TO.C,RN1*%
X175502000Y-109736000D03*
X175002000Y-109736000D03*
X174002000Y-109736000D03*
X174502000Y-109736000D03*
X175502000Y-110736000D03*
X174502000Y-110736000D03*
X175002000Y-110736000D03*
X174002000Y-110736000D03*
%TD*%
%TO.C,RN2*%
X179566000Y-109736000D03*
X179066000Y-109736000D03*
X178066000Y-109736000D03*
X178566000Y-109736000D03*
X179566000Y-110736000D03*
X178566000Y-110736000D03*
X179066000Y-110736000D03*
X178066000Y-110736000D03*
%TD*%
%TO.C,RN3*%
X180860000Y-110736000D03*
X181860000Y-110736000D03*
X181360000Y-110736000D03*
X182360000Y-110736000D03*
X181360000Y-109736000D03*
X180860000Y-109736000D03*
X181860000Y-109736000D03*
X182360000Y-109736000D03*
%TD*%
%TO.C,RN4*%
X181622000Y-154932000D03*
X182122000Y-154932000D03*
X183122000Y-154932000D03*
X182622000Y-154932000D03*
X181622000Y-153932000D03*
X182622000Y-153932000D03*
X182122000Y-153932000D03*
X183122000Y-153932000D03*
%TD*%
%TO.C,RN5*%
X179820000Y-153932000D03*
X178820000Y-153932000D03*
X179320000Y-153932000D03*
X178320000Y-153932000D03*
X179320000Y-154932000D03*
X179820000Y-154932000D03*
X178820000Y-154932000D03*
X178320000Y-154932000D03*
%TD*%
%TO.C,RN6*%
X175018000Y-154932000D03*
X175518000Y-154932000D03*
X176518000Y-154932000D03*
X176018000Y-154932000D03*
X175018000Y-153932000D03*
X176018000Y-153932000D03*
X175518000Y-153932000D03*
X176518000Y-153932000D03*
%TD*%
%TO.C,RN7*%
X177558000Y-69842000D03*
X178558000Y-69842000D03*
X178058000Y-69842000D03*
X179058000Y-69842000D03*
X178058000Y-68842000D03*
X177558000Y-68842000D03*
X178558000Y-68842000D03*
X179058000Y-68842000D03*
%TD*%
%TO.C,RN8*%
X181114000Y-69842000D03*
X182114000Y-69842000D03*
X181614000Y-69842000D03*
X182614000Y-69842000D03*
X181614000Y-68842000D03*
X181114000Y-68842000D03*
X182114000Y-68842000D03*
X182614000Y-68842000D03*
%TD*%
%TO.C,RN9*%
X182487000Y-100465000D03*
X181487000Y-100465000D03*
X181987000Y-100465000D03*
X180987000Y-100465000D03*
X181987000Y-101465000D03*
X182487000Y-101465000D03*
X181487000Y-101465000D03*
X180987000Y-101465000D03*
%TD*%
%TO.C,RN10*%
X177812000Y-101465000D03*
X178312000Y-101465000D03*
X179312000Y-101465000D03*
X178812000Y-101465000D03*
X177812000Y-100465000D03*
X178812000Y-100465000D03*
X178312000Y-100465000D03*
X179312000Y-100465000D03*
%TD*%
%TO.C,RN11*%
X86372000Y-96385000D03*
X87372000Y-96385000D03*
X86872000Y-96385000D03*
X87872000Y-96385000D03*
X86872000Y-95385000D03*
X86372000Y-95385000D03*
X87372000Y-95385000D03*
X87872000Y-95385000D03*
%TD*%
%TO.C,RN12*%
X90666000Y-95385000D03*
X90166000Y-95385000D03*
X89166000Y-95385000D03*
X89666000Y-95385000D03*
X90666000Y-96385000D03*
X89666000Y-96385000D03*
X90166000Y-96385000D03*
X89166000Y-96385000D03*
%TD*%
%TO.C,RN13*%
X91960000Y-96385000D03*
X92960000Y-96385000D03*
X92460000Y-96385000D03*
X93460000Y-96385000D03*
X92460000Y-95385000D03*
X91960000Y-95385000D03*
X92960000Y-95385000D03*
X93460000Y-95385000D03*
%TD*%
%TO.C,RN14*%
X89547000Y-152265000D03*
X90047000Y-152265000D03*
X91047000Y-152265000D03*
X90547000Y-152265000D03*
X89547000Y-151265000D03*
X90547000Y-151265000D03*
X90047000Y-151265000D03*
X91047000Y-151265000D03*
%TD*%
%TO.C,RN15*%
X89674000Y-137787000D03*
X90674000Y-137787000D03*
X90174000Y-137787000D03*
X91174000Y-137787000D03*
X90174000Y-136787000D03*
X89674000Y-136787000D03*
X90674000Y-136787000D03*
X91174000Y-136787000D03*
%TD*%
D20*
%TO.C,X1*%
X119113000Y-101414000D03*
X119113000Y-103564000D03*
X120663000Y-103564000D03*
X120663000Y-101414000D03*
%TD*%
M02*
